<?xml version="1.0" encoding="UTF-8"?><svg id="Laag_1" xmlns="http://www.w3.org/2000/svg" viewBox="0 0 200 200"><defs><style>.cls-1{fill:#ef9c22;}</style></defs><path class="cls-1" d="M100.65-2.58c1.84,5.96,5.37,15.49,12.29,25.55,13.6,19.79,25.28,19.85,38.02,38.88,4.17,6.23,12.98,19.77,13.05,38.14,.07,18.85-9.12,32.78-12.92,38.39-12.84,18.93-24.9,18.64-38.55,38.26-7.03,10.1-10.52,19.79-12.32,25.95-1.89-6.31-5.52-16.16-12.76-26.39-13.72-19.39-25.44-19.05-38.27-37.83-3.89-5.69-13.1-19.57-13.19-38.5-.09-18.81,8.88-32.69,12.66-38.38,12.34-18.57,23.81-18.55,38.37-38.36,7.42-10.1,11.47-19.68,13.64-25.71Z"/></svg>