<?xml version="1.0" encoding="utf-8"?>
<!-- Generator: Adobe Illustrator 27.0.0, SVG Export Plug-In . SVG Version: 6.00 Build 0)  -->
<svg version="1.1" id="Laag_1" xmlns="http://www.w3.org/2000/svg" xmlns:xlink="http://www.w3.org/1999/xlink" x="0px" y="0px"
	 viewBox="0 0 200 200" style="enable-background:new 0 0 200 200;" xml:space="preserve">
<style type="text/css">
	.st0{fill:#4E824E;}
	.st1{fill:#1D1D1B;}
	.st2{fill:#3D8BB7;}
	.st3{fill:#F9B233;}
	.st4{fill:#7BE6FF;}
	.st5{fill:#FF50DE;}
	.st6{fill:#F39200;}
	.st7{fill:#BE1622;}
	.st8{fill:#3AAA35;}
</style>
<g>
	<path class="st0" d="M178,161.1H16.6c-1.1,4.5-2.2,10.5-2.2,17.5c-0.1,7.6,1,13.9,2.2,18.7H178c1.2-4.9,2.4-11.5,2.2-19.4
		C180.1,171.2,179.1,165.5,178,161.1z"/>
	<path class="st1" d="M177,158.4H22.2c-2.1,0-4.2-0.2-6.3,0c-0.1,0-0.2,0-0.3,0c-0.5,0-0.9,0.5-1,0.9c-3,12.3-3,25.2,0,37.4
		c0.3,1.3,1.4,3.3,3,3.3H179c0.5,0,0.9-0.5,1-0.9c3-12.3,3.1-25.2,0-37.4c-0.3-1.2-1.1-2.9-2.5-3.2c-1.3-0.3-1.8,1-1.5,2.1
		c2.9,11.5,2.9,23.5,0,35l1-0.9H15.6l3,3.3c-2.8-11.5-2.9-23.5,0-35l-1,0.9h154.8c2.1,0,4.2,0.2,6.3,0c0.1,0,0.2,0,0.3,0
		C181.4,163.8,179.2,158.4,177,158.4L177,158.4z"/>
</g>
<g>
	<path class="st2" d="M166.3,135.6H5c-1.1,3.2-2.2,7.4-2.2,12.3c-0.1,5.3,1,9.8,2.2,13.1h161.3c1.2-3.4,2.4-8.1,2.2-13.6
		C168.4,142.7,167.4,138.7,166.3,135.6L166.3,135.6z"/>
	<path class="st1" d="M165.5,133.1H10.8c-2.1,0-4.2-0.1-6.3,0c-0.1,0-0.2,0-0.3,0c-0.9,0-1.7,0.6-1.9,1.4c-3,8.7-3,18.1,0,26.7
		c0.5,1.5,1.9,2.4,3.4,2.4h161.4c0.9,0,1.6-0.6,1.9-1.4c3-8.7,3-18.1,0-26.7C168.5,134.1,167.1,133,165.5,133.1
		c-1.3,0.1-2.4,1.4-1.9,2.7c2.8,7.9,2.7,16.3,0,24.2l1.9-1.4H4.2l3.4,2.4c-2.8-7.9-2.7-16.3,0-24.2l-1.9,1.4h154.8
		c2.1,0,4.2,0.1,6.3,0c0.1,0,0.2,0,0.3,0c1.4,0,2.3-1.4,1.9-2.7C168.5,134,167,133.1,165.5,133.1L165.5,133.1z"/>
</g>
<g>
	<path class="st3" d="M195.3,118.1H19.5c-1.2,2.2-2.4,5.1-2.4,8.5c-0.1,3.7,1.1,6.8,2.4,9h175.8c1.3-2.4,2.6-5.6,2.4-9.4
		C197.6,123,196.5,120.2,195.3,118.1L195.3,118.1z"/>
	<path class="st1" d="M194.6,115.9H26.1c-2.3,0-4.6-0.1-6.9,0c-0.1,0-0.2,0-0.3,0c-0.5,0-1.2,0.3-1.4,0.8c-3.5,6.4-3.5,13.4,0,19.7
		c0.5,1,1.6,1.5,2.7,1.5h175.8c0.5,0,1.2-0.3,1.4-0.8c3.5-6.4,3.5-13.4,0-19.7c-1.3-2.4-5.7-1.5-4.1,1.4c2.7,4.9,2.7,10.5,0,15.4
		l1.4-0.8H18.9l2.7,1.5c-2.7-4.9-2.7-10.5,0-15.4l-1.4,0.8h168.6c2.3,0,4.6,0.1,6.9,0c0.1,0,0.2,0,0.3,0c1.2,0,2-1.2,1.7-2.4
		C197.2,116.6,195.9,115.9,194.6,115.9L194.6,115.9z"/>
</g>
<g>
	<path class="st4" d="M178.1,87.7h-150c-1,3.7-2,8.5-2.1,14.2c0,6.1,1,11.3,2.1,15.1h150c1.1-4,2.2-9.3,2.1-15.7
		C180.1,95.9,179.1,91.3,178.1,87.7z"/>
	<path class="st1" d="M177.3,85.1H45.8c-6,0-12.2-0.3-18.2,0c-0.1,0-0.2,0-0.3,0c-0.9,0-1.8,0.6-2,1.5c-2.8,10-2.8,20.6,0,30.6
		c0.4,1.5,2,2.5,3.5,2.5h150c0.9,0,1.8-0.6,2-1.5c2.8-10,2.8-20.6,0-30.6c-0.9-3-6.6-3.3-5.5,0.4c2.6,9.2,2.6,18.8,0,28l2-1.5H27.3
		l3.5,2.5c-2.6-9.2-2.6-18.8,0-28l-2,1.5h131.6c6,0,12.2,0.3,18.2,0c0.1,0,0.2,0,0.3,0c1.5,0,2.4-1.5,2-2.8
		C180.4,86,178.8,85.1,177.3,85.1L177.3,85.1z"/>
</g>
<g>
	<path class="st5" d="M164.1,67.9h-150c-1,2.1-2,5-2.1,8.3c0,3.6,1,6.6,2.1,8.9h150c1.1-2.3,2.2-5.5,2.1-9.2
		C166.1,72.7,165.2,70,164.1,67.9z"/>
	<path class="st1" d="M163.5,65.9H19.6c-1.9,0-3.9-0.1-5.9,0c-0.1,0-0.2,0-0.3,0c-0.4,0-1.1,0.3-1.3,0.7c-3,6.3-3,12.9,0,19.2
		c0.4,0.9,1.5,1.4,2.5,1.4h150c0.4,0,1.1-0.3,1.3-0.7c3-6.3,3-12.9,0-19.2c-1.1-2.3-5.1-1.4-3.8,1.3c2.3,4.8,2.3,10.4,0,15.2
		l1.3-0.7h-150l2.5,1.4c-2.3-4.8-2.3-10.4,0-15.2L14.7,70h143.9c1.9,0,3.9,0.1,5.9,0c0.1,0,0.2,0,0.3,0c1.2,0,1.8-1.1,1.5-2.2
		C165.9,66.6,164.7,65.9,163.5,65.9L163.5,65.9z"/>
</g>
<g>
	<rect x="97" y="162.7" class="st1" width="9" height="32.9"/>
	<path class="st1" d="M105.9,162.4h-9c-0.1,0-0.7,0-0.7,0.2v32.9c0,0.2,0.6,0.2,0.7,0.2h9c0.1,0,0.7,0,0.7-0.2v-32.9
		c0-0.3-1.5-0.3-1.5,0v32.9l0.7-0.2h-9l0.7,0.2v-32.9l-0.7,0.2h9C106.8,162.9,106.8,162.4,105.9,162.4L105.9,162.4z"/>
</g>
<g>
	<rect x="115.8" y="162.7" class="st1" width="9" height="32.9"/>
	<path class="st1" d="M124.8,162.5h-9c-0.1,0-0.7,0-0.7,0.2v32.9c0,0.2,0.6,0.2,0.7,0.2h9c0.1,0,0.7,0,0.7-0.2v-32.9
		c0-0.3-1.5-0.3-1.5,0v32.9l0.7-0.2h-9l0.7,0.2v-32.9l-0.7,0.2h9C125.7,163,125.7,162.5,124.8,162.5L124.8,162.5z"/>
</g>
<g>
	<rect x="135" y="162.7" class="st1" width="9" height="32.9"/>
	<path class="st1" d="M144,162.4h-9c-0.1,0-0.7,0-0.7,0.2v32.9c0,0.2,0.6,0.2,0.7,0.2h9c0.1,0,0.7,0,0.7-0.2v-32.9
		c0-0.3-1.5-0.3-1.5,0c0,9.6,0,19.2,0,28.8v4.1l0.7-0.2h-9l0.7,0.2v-32.9l-0.7,0.2h9C144.9,162.9,144.9,162.4,144,162.4L144,162.4z"
		/>
</g>
<g>
	<rect x="38.8" y="136.7" class="st6" width="25.1" height="22.7"/>
	<path class="st1" d="M63.9,136H38.8c-0.4,0-2.2,0-2.2,0.7v22.7c0,0.7,1.9,0.7,2.2,0.7h25.1c0.4,0,2.2,0,2.2-0.7v-22.7
		c0-1-4.4-1-4.4,0v22.7l2.2-0.7H38.8l2.2,0.7v-22.7l-2.2,0.7h25.1c0.4,0,2.2,0,2.2-0.7C66.1,136,64.2,136,63.9,136L63.9,136z"/>
</g>
<g>
	<rect x="173.5" y="119.6" class="st7" width="9" height="14.4"/>
	<path class="st1" d="M182.5,119h-9c-0.3,0-1.9,0-1.9,0.6V134c0,0.6,1.6,0.6,1.9,0.6h9c0.3,0,1.9,0,1.9-0.6v-14.4
		c0-0.9-3.7-0.9-3.7,0V134l1.9-0.6h-9l1.9,0.6v-14.4l-1.9,0.6h9c0.4,0,1.8,0,1.9-0.6C184.4,119,182.7,119,182.5,119L182.5,119z"/>
</g>
<g>
	<rect x="32.7" y="119.1" class="st7" width="9" height="14.4"/>
	<path class="st1" d="M41.7,118.5h-9c-0.3,0-1.9,0-1.9,0.6v14.4c0,0.6,1.6,0.6,1.9,0.6h9c0.3,0,1.9,0,1.9-0.6v-14.4
		c0-0.9-3.7-0.9-3.7,0v14.4l1.9-0.6h-9l1.9,0.6v-14.4l-1.9,0.6h9c0.4,0,1.8,0,1.9-0.6C43.5,118.5,41.9,118.5,41.7,118.5L41.7,118.5z
		"/>
</g>
<g>
	<rect x="114.4" y="89.2" class="st1" width="26.1" height="26.1"/>
	<path class="st1" d="M140.5,88.8h-26.1c-0.3,0-1.5,0-1.5,0.5v26.1c0,0.5,1.2,0.5,1.5,0.5h26.1c0.3,0,1.5,0,1.5-0.5V89.2
		c0-0.7-2.9-0.7-2.9,0v26.1l1.5-0.5h-26.1l1.5,0.5V89.2l-1.5,0.5h26.1c0.3,0,1.5,0,1.5-0.5C142,88.8,140.7,88.8,140.5,88.8
		L140.5,88.8z"/>
</g>
<g>
	<rect x="140.5" y="89.2" class="st8" width="9" height="26.1"/>
	<path class="st1" d="M149.4,88.8h-9c-0.3,0-1.5,0-1.5,0.5v26.1c0,0.5,1.2,0.5,1.5,0.5h9c0.3,0,1.5,0,1.5-0.5V89.2
		c0-0.7-2.9-0.7-2.9,0v26.1l1.5-0.5h-9l1.5,0.5V89.2l-1.5,0.5h9c0.3,0,1.5,0,1.5-0.5C150.9,88.8,149.7,88.8,149.4,88.8L149.4,88.8z"
		/>
</g>
</svg>
