<?xml version="1.0" encoding="UTF-8"?><svg id="Laag_1" xmlns="http://www.w3.org/2000/svg" viewBox="0 0 200 200"><defs><style>.cls-1{fill:#683c11;}.cls-2{fill:#936037;}.cls-3{fill:#1d1d1b;}</style></defs><g><rect class="cls-1" x="12.27" y="80.62" width="176.7" height="117.52"/><path class="cls-3" d="M186.61,79.1H17.11c-2.26,0-4.65-.23-6.9,0-.1,.01-.2,0-.3,0l-.17,.08v112.72c0,1.51-.14,3.1,0,4.61,0,.07,0,.13,0,.2,0,.72,1.42,1.44,1.91,1.73,.85,.51,1.95,1.22,2.97,1.22H184.14c2.26,0,4.65,.23,6.9,0,.1-.01,.2,0,.3,0l.17-.08V86.86c0-1.51,.14-3.1,0-4.61,0-.07,0-.13,0-.2,0-.81-1.65-1.6-2.24-1.93-.17-.1-2.81-1.32-2.81-.94v17.71c0,13.02,0,26.04,0,39.05s0,26.73,0,40.1c0,6.82-.15,13.66,0,20.48,0,.18-.04,.22,.15,.1-.06,.04-.28,0-.35,0-.62-.06-1.28,0-1.91,0H9.91l4.89,2.95v-56.76c0-13.37,0-26.73,0-40.1,0-6.82,.15-13.66,0-20.48,0-.18,.04-.22-.15-.1,.06-.04,.28,0,.35,0,.62,.06,1.28,0,1.91,0h8.19c10.06,0,20.12,0,30.19,0h40.59c14.03,0,28.06,0,42.09,0h34.71c5.95,0,11.9,0,17.86,0h.81c.72,0-1.33-1.56-1.42-1.61-.91-.59-2.17-1.42-3.31-1.42Z"/></g><g><rect class="cls-1" x="3.52" y="47.64" width="192.96" height="32.98"/><path class="cls-3" d="M195.97,77.87H10.85c-2.49,0-5.02-.11-7.51,0-.11,0-.21,0-.32,0l3.11,3.38V48.27l-2.1,2.12H189.15c2.49,0,5.02,.11,7.51,0,.11,0,.21,0,.32,0l-3.11-3.38v32.98c0,1.48,.95,2.95,2.44,3.3,1.33,.31,2.76-.6,2.76-2.04V48.27c0-1.72-1.3-3.38-3.11-3.38H10.85c-2.5,0-5.01-.09-7.51,0-.11,0-.21,0-.32,0-1.11,0-2.1,1.01-2.1,2.12v32.98c0,1.72,1.3,3.38,3.11,3.38H189.15c2.5,0,5.01,.08,7.51,0,.11,0,.21,0,.32,0,1.47,0,2.29-1.49,2.05-2.81-.26-1.45-1.57-2.68-3.07-2.68Z"/></g><g><rect class="cls-2" x="51.03" y="105.71" width="102.52" height="18.21"/><path class="cls-3" d="M151.25,104.11H50.29c-.41,0-.98-.1-1.38,0-.05,.01-.12,0-.18,0h-.13v18.22c0,.52,1.63,1.4,1.95,1.62,.67,.45,1.93,1.57,2.78,1.57h100.96c.41,0,.98,.1,1.38,0,.05-.01,.12,0,.18,0h.13v-18.22c0-.6-1.84-1.55-2.27-1.84-.2-.13-2.59-1.36-2.59-1.34v16.39c0,.48,.16,1.29,0,1.75-.07,.21,.26-.05-.05,.06-.17,.06-.49,0-.67,0H65.69c-5.56,0-11.16-.2-16.72,0-.08,0-.16,0-.24,0l4.74,3.19v-16.39c0-.48-.16-1.29,0-1.75,.07-.21-.26,.05,.05-.06,.17-.06,.49,0,.67,0h99.52c.61,0,1.3,.1,1.9,0,.08-.01,.17,0,.24,0,.39,0-1.36-1.31-1.5-1.41-.61-.43-1.24-.83-1.89-1.2-.33-.19-.84-.58-1.21-.58Z"/></g></svg>