<?xml version="1.0" encoding="UTF-8"?><svg id="Laag_2" xmlns="http://www.w3.org/2000/svg" viewBox="0 0 200 200"><defs><style>.cls-1{fill:#929292;}.cls-2,.cls-3{fill:#1d1d1b;}.cls-3{stroke:#1d1d1b;stroke-miterlimit:10;stroke-width:2.43px;}</style></defs><g><path class="cls-1" d="M53.18,132.82c.25-19.14,.5-38.29,.75-57.43,1.78-.91,3.57-1.82,5.35-2.72-10.67,6.65-23.11,6.59-30.88,.2-5.42-4.46-10.15-13.3-7.19-20.39,2.94-7.05,12-8.92,17.19-9.99,12.62-2.61,15.31,2.94,25.18,1.2,15.85-2.79,16.82-18.48,30.78-19.59,10.44-.83,12.05,7.77,23.58,6.8,12.06-1.02,15.83-10.9,25.23-9.18,6.4,1.17,10.93,6.93,12.74,10.78,5.56,11.83-2.81,30.73-21.76,45.78-.67-3.69-1.34-7.39-2.02-11.08,.67,3.69,1.34,7.39,2.02,11.08,4.39,27.6,8.78,55.2,13.17,82.8-31.38-9.42-62.76-18.83-94.14-28.25Z"/><path class="cls-2" d="M55.54,134.35c.25-19.14,.5-38.29,.75-57.43l-.35,.43c1.78-.91,3.57-1.82,5.35-2.72l-4.29-3.77c-4.62,2.84-10.05,4.7-15.5,4.82-4.35,.09-9.19-.93-12.45-3.63-1.26-1.04-2.71-2.84-3.71-4.49-1.25-2.07-2.21-4.42-2.54-6.82-.62-4.59,1.08-8.78,4.78-11.56,3.14-2.36,7.1-3.47,10.88-4.31,4.29-.95,8.49-1.46,12.85-.64,3.45,.65,6.76,1.82,10.31,1.78,4.23-.04,8.36-1.18,11.97-3.39,6.06-3.71,9.47-10.34,15.4-14.15,3.15-2.02,7.16-2.87,10.85-2.25,1.66,.28,2.74,.79,4.18,1.59,.73,.41-.45-.27,.27,.16,.15,.09,.29,.17,.43,.26,.36,.22,.72,.44,1.08,.66,.86,.52,1.72,1.04,2.61,1.52,3.83,2.08,7.96,2.89,12.29,2.38s7.93-2.34,11.46-4.61c2.89-1.86,5.77-4.06,9.27-4.57,1.83-.27,3.76,0,5.46,.72,1.86,.78,3.02,1.82,4.26,3.3,4.68,5.56,4.79,12.83,2.79,19.54-2.74,9.19-9.01,17.27-15.82,23.84-2,1.92-4.09,3.74-6.26,5.47l4.64,3.34c-.67-3.69-1.34-7.39-2.02-11.08-.22-1.21-1.35-2.16-2.34-2.8-.23-.15-2.58-1.32-2.39-.26,4.42,24.31,8.01,48.78,11.9,73.18,1.1,6.9,2.2,13.8,3.29,20.7l1.22-.33c-24.45-7.34-48.9-14.68-73.35-22.01-6.93-2.08-13.86-4.16-20.79-6.24-1.02-.31-1.48,.21-.92,1.16,.65,1.08,1.99,2.19,3.22,2.56,24.45,7.34,48.9,14.68,73.35,22.01,6.93,2.08,13.86,4.16,20.79,6.24,.26,.08,1.32,.33,1.22-.33-3.89-24.48-7.79-48.96-11.68-73.44-1.09-6.83-2.27-13.64-3.51-20.44-.22-1.21-1.35-2.16-2.34-2.8-.23-.15-2.58-1.32-2.39-.26,.67,3.69,1.34,7.39,2.02,11.08,.2,1.1,1.16,1.96,2.03,2.57,.6,.43,1.88,1.35,2.61,.77,8.42-6.72,16.1-15.04,20.48-25,3.11-7.09,4.5-15.32,.8-22.46-4.06-7.83-14.15-15.99-23.35-12.07-3.49,1.49-6.41,4.04-9.76,5.79-4.13,2.16-9.14,3.36-13.76,2.26-.74-.18-1.64-.5-2.16-.73-.4-.18-.8-.38-1.19-.59-.15-.08-.31-.16-.46-.25-.28-.16-.3-.17-.06-.03-.15-.09-.3-.17-.44-.26-1.58-.95-3.13-1.96-4.79-2.77-3.93-1.92-8.34-2.46-12.59-1.29-7.37,2.04-11.22,9.06-16.68,13.79-3.32,2.88-7.25,4.72-11.61,5.36-3.85,.56-7.39-.34-11.11-1.2-4.63-1.08-9.18-.98-13.83-.02-3.92,.81-7.86,1.81-11.32,3.89-4.09,2.46-6.75,6.48-6.67,11.36,.08,5.25,2.76,10.34,6.14,14.22,3.62,4.16,8.36,7.36,13.74,8.71s10.8,1.01,15.95-.65c2.75-.89,5.34-2.16,7.8-3.67,.9-.55-3.01-4.43-4.29-3.77-1.78,.91-3.57,1.82-5.35,2.72-.22,.06-.34,.2-.35,.43-.25,19.14-.5,38.29-.75,57.43-.01,1.14,1.5,2.25,2.34,2.8,.35,.23,2.37,1.35,2.39,.26Z"/></g><g><path class="cls-2" d="M53.18,132.82c6.84-5.01,20.23-13.41,39.17-16.79,21.82-3.89,39.39,.95,47.56,3.79,2.47,13.75,4.94,27.5,7.4,41.25-10.89,.28-23.95-.29-38.46-2.81-23.5-4.09-42.32-11.82-55.64-18.63-.01-2.27-.03-4.54-.04-6.81Z"/><path class="cls-2" d="M54.49,134.91c19.9-14.53,45.11-20.6,69.62-16.38,5.19,.89,9.54,2.02,14.34,3.68l-1.26-1.46c2.47,13.75,4.94,27.5,7.4,41.25l2.83-3.52c-26.23,.65-52.5-4.14-76.82-13.97-5.41-2.19-10.72-4.62-15.92-7.27l1.33,2.12c-.01-2.27-.03-4.54-.04-6.81-.02-3.55-5.6-2.6-5.58,.56,.01,2.27,.03,4.54,.04,6.81,0,.97,.47,1.68,1.33,2.12,22.87,11.67,47.99,18.91,73.59,21.02,7.27,.6,14.58,.79,21.87,.61,1.76-.04,3.12-1.87,2.83-3.52-2.47-13.75-4.94-27.5-7.4-41.25-.1-.58-.71-1.27-1.26-1.46-10.72-3.7-21.98-5.54-33.32-5.44-14.77,.13-29.34,3.82-42.54,10.41-4.77,2.38-9.34,5.17-13.65,8.32-1.11,.81-1.98,2.31-1.14,3.64,.76,1.22,2.66,1.36,3.78,.55Z"/></g><path class="cls-2" d="M15.57,87.4c7.39-3.4,13.62-8.92,17.85-15.87,.27-.44-1.44-2.09-1.71-2.38-.14-.15-2.1-2.12-2.24-1.88-4.24,6.94-10.47,12.47-17.85,15.87-.26,.12,1.56,2.22,1.71,2.38,.47,.5,.95,1,1.48,1.43,.15,.12,.56,.54,.77,.45h0Z"/><path class="cls-2" d="M24.94,58.16c-7.79-3.2-16.2-4.06-24.47-2.38-1.29,.26,.64,5.63,2.47,5.26,7.69-1.56,15.82-.82,23.08,2.16,1.13,.46,1.16-.79,.99-1.61-.21-1.04-.96-2.97-2.06-3.42h0Z"/><path class="cls-2" d="M50.07,45.25c-1.85-8.07-6.12-15.42-12.15-21.09-.97-.91-2.73-1.01-3.95-.69-.87,.23-2.1,1.06-1.12,1.98,5.82,5.48,9.81,12.58,11.6,20.36,.1,.44,.96,.82,1.3,.94,.69,.24,1.51,.31,2.23,.24,.99-.1,2.38-.52,2.1-1.74h0Z"/><path class="cls-2" d="M94.18,31.86c.9-7.8-2.53-15.5-8.78-20.21-1.05-.79-2.83-.67-4-.25-.82,.29-1.98,1.17-.92,1.97,5.84,4.4,8.74,11.63,7.9,18.85-.13,1.15,2.33,1.25,2.99,1.21,.96-.06,2.68-.37,2.81-1.57h0Z"/><path class="cls-2" d="M113.78,33.34c1.19-7.89,1.75-15.85,1.7-23.83,0-1.14-5.82-1.05-5.81,.17,.06,7.98-.51,15.94-1.7,23.83-.13,.89,5.6,1.23,5.81-.17h0Z"/><path class="cls-2" d="M150.27,34.62c11.2-3.6,21.43-9.92,29.4-18.61,.71-.78,.55-1.46-.6-1.44-1.22,.02-2.95,.65-3.8,1.58-6.67,7.27-14.97,12.89-24.39,15.92-.84,.27-2.92,.99-3.01,2.08s1.88,.64,2.39,.47h0Z"/><path class="cls-2" d="M178.25,45.63c-7.8-1.67-15.71-2.73-23.68-3.17-1.13-.06-2.42,.75-3.35,1.33-.19,.12-2.08,1.59-1.43,1.63,7.96,.43,15.88,1.49,23.68,3.17,1.01,.22,2.54-.83,3.35-1.33,.21-.13,2.12-1.48,1.43-1.63h0Z"/><rect class="cls-3" x="42.97" y="53.78" width="5.75" height="3.78"/><rect class="cls-3" x="54.81" y="59.12" width="4.77" height="4.77"/><rect class="cls-3" x="77.11" y="67.32" width="3.4" height="3.4"/><rect class="cls-3" x="87.19" y="63.9" width="3.42" height="3.42"/><rect class="cls-3" x="95.41" y="55.67" width="3.45" height="3.45"/><rect class="cls-3" x="98.86" y="37.88" width="4.03" height="4.03"/><rect class="cls-3" x="111.72" y="59.12" width="4.77" height="4.77"/><rect class="cls-3" x="107.93" y="77.34" width="4.64" height="4.64"/><path class="cls-2" d="M71.85,83.2c-3.06,.39-5.72,.23-8.57-.74-1.97-.67-3.14-1.27-4.77-2.42-.19-.13-.37-.27-.55-.4-.1-.08-.59-.47-.11-.07-.28-.23-.55-.46-.81-.7-.47-.42-.91-.86-1.34-1.32-.88-.93-2.68-1.55-3.81-.71-1.18,.88-.56,2.44,.26,3.31,5.44,5.79,13.58,8.84,21.49,7.84,1.32-.17,2.14-1.21,1.66-2.53s-2.05-2.43-3.44-2.25h0Z"/><path class="cls-2" d="M113.03,33.17c.25,.13,.51,.26,.76,.4-.13-.07-.39-.23,.15,.1s1.02,.64,1.51,.98c1.15,.81,2.2,1.71,3.15,2.75,1.63,1.79,2.86,3.81,3.8,6.03,1.59,3.72,2.13,7.78,2.77,11.76,.5,3.11,1.12,7.02,4.34,8.49,5.17,2.36,9.82-3.76,12.64-7.21,3.6-4.41,5.91-9.59,7.2-15.11,.34-1.46-1.38-2.8-2.63-2.99-1.56-.24-2.72,.63-3.06,2.1-.17,.72,.08-.3-.04,.16-.05,.21-.11,.42-.17,.63-.1,.36-.2,.72-.31,1.08-.32,1.02-.68,2.04-1.08,3.03-.92,2.23-2.06,4.36-3.48,6.31-1.58,2.17-3.43,4.35-5.43,6.14-.39,.35-.82,.67-1.26,.95-.06,.04-.63,.33-.33,.19-.36,.17-.12-.01-.09,.07,.04,.11-.48-.07-.02,.03,.67,.14,.36,.14,.17,.04-.33-.16,.68,.46,.26,.15-.39-.29,.48,.53,.13,.13-.42-.48,.09,.37-.05-.01-.09-.25-.26-.51-.37-.75-.15-.33,.09,.39-.08-.24-.1-.37-.2-.74-.28-1.12-.35-1.59-.56-3.21-.82-4.81-.66-4.12-1.59-8.24-3.44-12.01-2.58-5.26-6.84-9.27-12.02-11.93-1.25-.64-3.1-.1-3.65,1.22-.61,1.49,.48,2.8,1.72,3.44h0Z"/><g><path class="cls-1" d="M38.68,197.75c43.2,0,86.41,.01,129.61,.02,21.05-11.51,31.44-30.28,27.18-44.03-2.17-7.02-9.08-15.34-17.94-16.85-7.18-1.22-13.68,3.01-19.63,6.73-5.2,3.25-8.88,6.8-11.16,9.3,.19,2.72,.38,5.44,.58,8.16,3.64-.49,7.86-1.26,12.48-2.5,5.61-1.5,11.27-3.56,11.21-3.75-.08-.26-10.43,4.86-23.69,6.25-5.83,.61-18.6,1.29-45.89-7.33-27.95-8.83-26.32-13.06-38.6-14.13-9.43-.83-48.09,5.64-50.01,26.09-1.09,11.64,10.03,24.49,25.87,32.06Z"/><path class="cls-2" d="M39.66,199.97c20.27,0,40.54,0,60.82,0s40.54,0,60.82,0c2.49,0,4.99,.04,7.48,0,2.15-.03,4.27-1.75,6.04-2.89,3.34-2.14,6.5-4.57,9.39-7.28,5.04-4.71,9.43-10.21,12.13-16.6,2.24-5.29,3.4-11.15,2.24-16.86-1.43-7.06-6.16-13.48-12-17.58-3.37-2.37-7.37-4.02-11.5-4.3-4.42-.31-8.69,1.2-12.56,3.21s-7.81,4.46-11.29,7.2c-1.54,1.21-3,2.51-4.42,3.86-.58,.55-1.14,1.12-1.69,1.7-.22,.23-.5,.46-.68,.72-.42,.62-.26,1.33-.21,2.04,.17,2.4,.34,4.8,.51,7.2,.13,1.8,2.56,3.04,4.15,2.83,5.07-.69,10.06-1.76,14.97-3.2,2.19-.64,4.36-1.33,6.5-2.11,1.14-.41,2.77-.69,3.25-1.93,.29-.74-.5-1.74-.96-2.19-2.44-2.43-5.55-.26-8.14,.67-4.77,1.71-9.68,3.04-14.67,3.87-1.75,.29-3.5,.5-5.27,.66-.43,.04,.47-.03,.16-.01-.1,0-.21,.02-.31,.02-.22,.01-.44,.03-.65,.04-.48,.03-.95,.05-1.43,.07-2.58,.09-5.16,.01-7.73-.19-8.77-.68-17.42-2.68-26.03-5.1-9.55-2.69-19.05-5.84-28.04-10.06-4.18-1.96-8.22-4.35-12.73-5.47-4.81-1.2-9.61-1.11-14.5-.53-6.7,.8-13.37,2.35-19.71,4.67s-13.2,5.67-18.07,10.89c-2.19,2.35-3.86,5.14-4.74,8.24-1.07,3.79-.69,7.79,.49,11.5,3.03,9.52,11.22,17.09,19.42,22.31,2.46,1.57,5.02,2.98,7.65,4.24,.94,.45,2.64,.61,2.94-.7s-1.22-2.58-2.24-3.06c-8.37-4.03-16.89-10.12-21.25-18.56-1.71-3.31-2.78-7.03-2.35-10.78,.34-2.99,1.45-5.53,3.24-7.95,3.88-5.23,10.03-8.58,15.99-11.01s12.64-4.11,19.15-5.1c1.36-.21,2.72-.38,4.08-.51,.14-.01,1.07-.1,.56-.05,.3-.02,.6-.05,.9-.07,.55-.04,1.11-.06,1.66-.08,.89-.02,1.79-.02,2.67,.05,.57,.04,1.14,.11,1.7,.18,.14,.02,1.16,.17,.45,.05,.31,.05,.63,.1,.94,.16,1,.18,1.99,.42,2.96,.72,.23,.07,.46,.16,.69,.23,.3,.09-.64-.24,.07,.03,.47,.18,.94,.37,1.4,.57,1.98,.85,3.89,1.86,5.83,2.81,7.88,3.85,16.13,6.83,24.49,9.46,9.58,3.01,19.35,5.53,29.32,6.85,5.03,.66,10.11,.97,15.18,.58,8.2-.64,16.16-2.73,23.8-5.7,.44-.17,.88-.35,1.33-.52,.81-.31,.91-.02-.52-.27l-1.95-1.11h0c-.32-.72-.64-1.46-.96-2.19v.02c.17-.27,.36-.53,.54-.8-.14,.12-.77,.37-.6,.3-.73,.3-1.48,.55-2.22,.81-2.16,.75-4.34,1.43-6.54,2.05-4.54,1.28-9.17,2.24-13.85,2.88l4.15,2.83c-.19-2.72-.38-5.44-.58-8.16l-.19,.98c2.54-2.77,5.37-5.24,8.45-7.4,3.64-2.55,7.59-5.08,11.71-6.77,3.65-1.5,7.64-2.04,11.41-.62,3.17,1.19,5.85,3.31,8.01,5.98,3.81,4.7,5.63,10.09,4.94,16.12s-3.56,11.97-7.26,16.95c-5.3,7.14-12.4,12.72-20.15,16.99l1.07-.24c-16.87,0-33.73,0-50.6,0-16.78,0-33.57,0-50.35,0-9.55,0-19.11,0-28.66,0-1.25,0-1.95,.94-1.45,2.13s2.05,2.32,3.39,2.32Z"/></g></svg>