<?xml version="1.0" encoding="UTF-8"?><svg id="Laag_1" xmlns="http://www.w3.org/2000/svg" viewBox="0 0 200 273.65"><defs><style>.cls-1{fill:#1d1d1b;}</style></defs><g><path class="cls-1" d="M25.44,189.83c-.46-.67,4.74-5.71,33.45-27.31-18.03-17.87-21.98-25.83-22.02-29.76,0-.18,0-6.11,0-8.15h0c0-1,6.25-.4,8.56-2.85,2.87-3.05-1.79-9.28,0-11.01,2.88-2.77,17.99,10.36,36.19,20.43,11.12,6.15,21.09,9.9,28.23,12.19-.14-6.12-.27-12.23-.41-18.35,5.87,3.45,13.21,7.15,21.95,10.34,8.18,2.98,15.69,4.82,22.08,5.97,4.76,12.1,9.51,24.19,14.27,36.29-7.5,.09-10.91,2.38-12.64,4.48-2.01,2.46-1.71,4.66-4.48,7.75-3.04,3.39-5.9,3.52-7.34,4.89-2.74,2.6-2.03,11.2,14.27,38.33-18.14-15.81-26.06-17.4-29.76-15.09-3.73,2.33-2.43,8.17-6.93,17.12-3.8,7.56-9.36,12.63-13.86,15.9-1.42-2.73-3.59-6.71-6.51-11.36-6.2-9.89-8.08-10.53-8.99-14.33-2.59-10.79,9.25-20.01,6.98-22.6-1.41-1.61-6.93-.93-26.55,11.19-3.51-3.1-8.25-8.27-9.86-15.63-1.86-8.5,1.91-13.25-.67-16.21-.26-.3-.59-.37-.78-.46-7.03-3.31-34.25,9.6-35.19,8.23Z"/><path class="cls-1" d="M27.22,189.74c.26,.41,.33,.92,.25,1.24,.06-.27,.13-.18-.08,.09,.18-.23,.34-.47,.53-.69,.83-.94,1.79-1.78,2.74-2.61,4.66-4.11,9.6-7.9,14.5-11.7,5.16-4,10.37-7.95,15.59-11.87,.9-.68-.45-2.33-.88-2.76-4.4-4.36-8.7-8.83-12.67-13.59-1.4-1.68-2.76-3.4-4.03-5.18-.22-.31-.44-.63-.66-.94,.21,.31-.38-.57-.48-.74-.41-.64-.8-1.28-1.17-1.94-.29-.52-.57-1.04-.83-1.58-.06-.13-.12-.27-.19-.4-.21-.45,.18,.45,0,0-.1-.24-.2-.48-.29-.72-.16-.43-.3-.86-.41-1.3-.04-.16-.08-.33-.11-.49,.14,.66,0-.07-.02-.24-.11-1.05-.04-2.12-.04-3.17s0-2.16,0-3.24c0-.53,0-1.06,0-1.58,0-.2,.02-.43,0-.63-.08-.65,.04,.73-.3,.52,.15,.09,1.48-.31,1.82-.36,1.15-.16,2.3-.34,3.42-.63,2.04-.53,4.03-1.71,4.46-3.94s-.42-4.63-1-6.84c-.17-.64-.26-1.39-.21-1.83,.02-.16,.18-.3,.1-.16,.01-.02,.16-.07,.17-.07,.26-.07-.4,.05,.07,0,.11-.01,.23,0,.34,0-.52,0-.12-.01,.01,.02,.24,.06,.47,.11,.71,.18-.53-.16,.45,.19,.61,.26,.41,.17,.81,.37,1.21,.56,.57,.29,1.3,.7,2.15,1.2,1.02,.61,2.02,1.23,3.02,1.87,5.09,3.26,10.06,6.7,15.16,9.94,12.31,7.81,25.35,14.27,39.25,18.74,.84,.27,2.03,.35,2-.88-.14-6.12-.27-12.23-.41-18.35l-2.54,.59c13.94,8.15,29.21,13.87,45.1,16.77l-2.63-2.37c4.76,12.1,9.51,24.19,14.27,36.29l.89-1.57c-5.8,.11-12.13,1.5-14.84,7.18-.73,1.53-1.25,3.1-2.29,4.47-1.19,1.57-2.66,2.84-4.41,3.74-1.44,.74-3.24,1.26-4.18,2.68-1.14,1.73-1.08,3.99-.77,5.96,.64,4.02,2.19,7.84,3.83,11.55,3.37,7.6,7.53,14.84,11.8,21.96l2.75-1.17c-5.12-4.45-10.43-8.82-16.26-12.33-3.2-1.92-6.78-3.88-10.54-4.38-2.44-.33-5.08-.03-6.83,1.9-1.43,1.58-1.92,3.84-2.41,5.85-.79,3.24-1.67,6.42-3.06,9.46-3.12,6.82-8.28,12.46-14.29,16.85l3.64,1.58c-3.84-7.37-8.26-14.36-13.15-21.08-.29-.4-.58-.8-.86-1.2,.3,.43,.02,.03-.1-.16-.13-.21-.26-.42-.38-.64-.09-.17-.18-.34-.26-.51-.25-.46,.03,.12-.06-.14-.14-.4-.28-.8-.39-1.21-.88-3.38,.02-6.92,1.42-10.02,1.24-2.75,2.97-5.19,4.49-7.79,1.16-2,2.12-4.04,.42-6.09-2.17-2.62-5.45-2.13-8.32-1.19s-5.35,2.17-7.9,3.48c-4.54,2.34-8.93,4.95-13.27,7.63l2.51,.82c-4.94-4.38-8.78-10.21-9.23-17.06-.2-3.05,.46-5.95,.71-8.96s-1.01-5.76-3.86-6.97c-3.71-1.57-8.15-.48-11.89,.44-4.94,1.21-9.76,2.91-14.55,4.62-2.16,.77-4.3,1.56-6.48,2.28-.74,.25-1.49,.47-2.24,.68-.3,.09-.19,.04-.09,.03-.11,.02-.23,.03-.34,.06-.09,.02-.19,0-.27,.02-.03,0-.06-.01-.08,0,.64-.23,2.61,1.69,2.27,1.29-.62-.73-1.93-1.79-2.97-1.3s-.42,1.88,.1,2.5c2.39,2.83,6.27,.7,9.08-.3,4.66-1.65,9.3-3.37,14.03-4.8,2.32-.7,4.67-1.36,7.05-1.8,1-.19,2.02-.34,3.03-.42,.45-.04,.9-.06,1.35-.06,.21,0,.42,0,.63,.01,.44,.02-.07-.03,.35,.03,.35,.05,.69,.12,1.03,.21,.23,.06-.2-.07-.2-.06,.04,.02,.21,.06,.25,.1,.65,.65-.21-.6-.62-.68,.1,.02,.19,.48,.22,.69,.07,.55,.04,1.11-.01,1.66-.28,3.01-.91,5.91-.71,8.96,.55,8.35,5.36,15.6,11.47,21.03,.51,.45,1.76,1.28,2.51,.82,6.19-3.81,12.52-7.74,19.3-10.43,.86-.34,1.73-.66,2.62-.91,.18-.05,.36-.1,.55-.15,.12-.03,.58-.13,.21-.06,.31-.06,.62-.12,.93-.15,.23-.02,.46-.02,.69-.04,.64-.04-.31-.1,.26,.02,.61,.13-.43-.19-.03-.02,.34,.15-.6-.36-.3-.17,.38,.24-.54-.45-.31-.24,.13,.12-.48-.57-.55-.69-.02-.03-.29-.46-.1-.22-.17-.22,.08-.21-.05-.16,.05-.02-.12,.49,.03-.07-.02,.06-.02,.13-.03,.19-.05,.21-.11,.42-.19,.62-.36,.98-.95,1.88-1.5,2.76-1.65,2.65-3.35,5.29-4.52,8.2-1.34,3.34-1.8,6.91-1,10.44,.44,1.95,1.4,3.62,2.53,5.24,1.9,2.73,3.91,5.37,5.71,8.17,2.7,4.2,5.21,8.52,7.51,12.95,.6,1.15,2.38,2.5,3.64,1.58,4.92-3.59,9.24-7.99,12.39-13.23,1.85-3.07,3.3-6.34,4.31-9.78,.7-2.37,1.08-4.86,1.94-7.18,.47-1.27,1.22-2.4,2.49-2.96,.19-.09,.39-.15,.59-.22,.1-.03,.19-.05,.29-.08,.36-.1-.23,.03,.04,0,.48-.07,.96-.1,1.44-.1,.13,0,.26,.01,.38,.02,.1,0-.33-.04,.05,0,.31,.04,.62,.09,.92,.15s.62,.13,.92,.21c.16,.04,.32,.09,.48,.14,.33,.09-.24-.09,.23,.07,1.62,.57,3.45,1.44,4.64,2.1,6.02,3.37,11.41,7.82,16.6,12.34,.58,.5,1.69,1.21,2.51,.82,.77-.37,.62-1.37,.25-1.99-3.78-6.3-7.45-12.7-10.6-19.34-1.72-3.63-3.34-7.42-4.24-11.38-.01-.06-.12-.59-.08-.35,.04,.22-.04-.23-.06-.33-.05-.31-.09-.61-.13-.92-.06-.53-.09-1.06-.08-1.6,0-.13,.05-.72,.02-.47-.03,.23,.06-.34,.09-.48,.08-.35,.2-.67,.33-1.01,.15-.4-.16,.18,.05-.09,.09-.12,.17-.24,.26-.35,.48-.56,1.15-.85,1.81-1.16,3.29-1.55,6.02-3.61,7.76-6.9,.79-1.49,1.23-3.17,2.25-4.54,.6-.8,1.35-1.53,2.19-2.08,2.9-1.92,6.55-2.31,9.94-2.38,.83-.02,1.17-.87,.89-1.57-4.57-11.63-9.15-23.26-13.72-34.89-.64-1.64-1.27-3.28-3.18-3.76-1.22-.31-2.5-.47-3.73-.73-2.44-.51-4.86-1.09-7.27-1.74-5.7-1.53-11.3-3.47-16.74-5.76s-10.32-4.75-15.22-7.62c-.82-.48-2.58-.96-2.54,.59,.14,6.12,.27,12.23,.41,18.35l2-.88c-12.8-4.11-24.9-9.88-36.3-16.98-5.48-3.41-10.79-7.08-16.21-10.59-1.91-1.23-3.83-2.45-5.82-3.53-1.52-.82-3.12-1.67-4.83-2-1.32-.25-2.91-.12-3.48,1.31-.72,1.82,.38,4.19,.83,5.94,.5,1.95,.67,4.04-1.4,5.06-1.96,.96-4.16,.89-6.24,1.38-.64,.15-1.29,.38-1.49,1.09-.23,.85-.05,1.95-.05,2.82,0,1.91-.05,3.82,0,5.73s.78,3.89,1.62,5.68c1.73,3.66,4.25,6.99,6.78,10.13,4.54,5.64,9.6,10.86,14.74,15.96l-.88-2.76c-8.15,6.13-16.3,12.28-24.24,18.69-2.92,2.36-6.14,4.69-8.62,7.54-.73,.84-1.2,1.76-.51,2.84,.58,.91,1.7,2.03,2.89,1.9,1.11-.12,1.17-1.28,.67-2.08Z"/></g><path class="cls-1" d="M61.66,87.32c1.26,4.32,2.71,8.65,4.86,12.62,1.31,2.41,2.88,4.72,5.07,6.4,1.83,1.41,4.09,2.13,6.39,2.08s4.34-.91,6.4-1.87c.27-.13,.55-.27,.82-.38,.16-.06,.35-.1,.51-.17,.61-.29,.2,0,.14-.04,0,0-.69-.06-.64-.13,.03-.03,.37,.41,.42,.5,1.06,1.68,.88,4.18,.77,6.06-.15,2.72-.61,5.42-1.14,8.09-.31,1.57,2.9,1.66,3.71,1.4,1.75-.54,3.51-1.07,5.3-1.46,.35-.08,.86-.17,1.37-.24,.25-.03,.5-.05,.74-.07-.3,.02-.45-.01-.07,.01,.5,.04-.38-.09-.36-.09-.18-.07-.56-.32-.58-.34-.39-.24,.06-.35-.16-.13-.26,.26-.52,1.14-.74,1.49-.46,.74-.95,1.46-1.37,2.22-3.15,5.64-1.72,12.21,.65,17.86,.73,1.74,5.68,1.41,4.85-.58-1.52-3.62-2.69-7.51-2.28-11.47,.12-1.15,.38-2.27,.82-3.34,.71-1.7,1.94-3.09,2.7-4.75,1.17-2.57-1.21-3.69-3.41-3.78-3.32-.13-6.78,1.09-9.89,2.05l3.71,1.4c.85-4.26,1.83-9.03,.8-13.35s-5.42-4.97-9.05-3.46c-1.52,.63-2.94,1.55-4.6,1.65-.82,.05,.45-.12-.16-.02-.13,.02-.35-.08-.48-.11,.74,.17,.11,.03-.08-.06-.08-.04-.17-.07-.25-.1-.45-.17,.17,.1,0,0-.38-.22-.74-.44-1.09-.7-.19-.14,.03,.05-.28-.23-.23-.21-.45-.42-.66-.64-.9-.93-1.67-1.99-2.34-3.09-2.57-4.25-4.17-9.08-5.55-13.82-.52-1.78-5.47-1.56-4.85,.58h0Z"/><path class="cls-1" d="M146.89,101.5c.91,2.44,1.83,5,2.01,7.62,.05,.7,.06,1.43-.07,2.13,.06-.33-.1,.34-.15,.47-.05,.13-.11,.26-.17,.39-.15,.35,.25-.29-.05,.07-.39,.47-.36,.45-.99,.56-.8,.14-2.02,.02-3.02,.03-2.3,.02-5.16,.57-5.91,3.11-.33,1.13-.04,2.29,.26,3.39,.14,.52,.69,1.76,.21,2.23-.27,.26-1.68,.24-2.2,.38-1.4,.37-2.87,1.33-2.91,2.95-.03,1.08,.56,1.92,.98,2.87,.15,.34,.3,.65,.28,1.02,0,.06-.28,.53-.11,.26-.21,.33,.13-.08-.2,.21-.9,.8-2.49,.94-4,1.35-1.41,.38-3.88,1.51-2.46,3.33,.9,1.16,2.75,1.58,4.09,1.9,4.12,.98,8.99,.93,12.73-1.25,2.07-1.21,3.48-3.2,3.98-5.53,.25-1.18,.32-2.37,.42-3.57,.03-.35,.05-.74,.12-1.06,.04-.18,.11-.35,.18-.53,.03-.08,.2-.12,.05-.06-.22,.08-.39,.2-.64,.23-.11,.01-.83,.04-.36,.01-.44,.03-.19-.11,.08,.06,.06,.04,.36,.2,.03,0,.82,.48,1.55,1.13,2.26,1.74,1.78,1.51,3.54,2.98,5.61,4.09,9.64,5.18,19.52-2.53,26.07-9.12,.87-.87,0-2.09-.88-2.48-1.16-.51-2.54-.26-3.42,.63-3.36,3.38-7.2,6.79-11.75,8.43-.69,.25-.75,.28-1.68,.46-.33,.06-.66,.11-.99,.15-.39,.05,.62-.02,0,0-.18,0-.36,.02-.54,.02-.29,0-.58-.02-.86-.03-.57,0,.56,.13,.01,0-.1-.02-.21-.03-.31-.05-.89-.17-1.7-.43-2.51-.83-1.89-.92-3.49-2.38-5.07-3.73-1.34-1.14-2.76-2.37-4.51-2.8-2.02-.5-4.42,.17-5.33,2.17-.83,1.82-.4,3.99-.91,5.89s-1.75,3.11-3.53,3.68c-.46,.15-1.65,.35-2.06,.37-.47,.03-.94,.04-1.41,.03-.28,0-.55-.02-.83-.03-.08,0-.82-.07-.41-.03-.8-.09-1.59-.23-2.37-.43-.14-.03-.27-.07-.4-.11-.63-.17,.44,.18-.12-.04-.28-.11-.55-.22-.82-.35,.03,.01,.44,.32,.23,.12-.24-.24,.27,.3,.31,.38,.41,.73-.17,1.47-.75,1.85,.12-.08,.41-.06,.09-.05s.49-.13,.66-.17c.4-.1,.8-.19,1.2-.3,1.83-.48,3.94-1.08,5.22-2.59,1.51-1.79,.77-4.02-.3-5.85-.02-.03-.48-.43-.03-.28,.09,.03-.39,.65-.47,.44,0-.01,.97-.15,1.2-.18,1.29-.2,2.6-.61,3.52-1.59,1.81-1.94,.49-3.99,.24-6.17-.03-.23,.04-.83,.05-.85,.01-.03-.56,.29,.11-.06-.38,.2,.54-.06,.34-.04,.89-.09,2.24,.05,3.31,0,2.16-.11,4.49-.71,5.72-2.63,.88-1.36,1.06-3.03,.95-4.62-.21-2.95-1.16-5.84-2.19-8.59-.81-2.16-5.73-1.5-4.83,.94h0Z"/><path class="cls-1" d="M194.54,176.41c-3.55-2.24-8.57-5.09-12.85-3.05-2.32,1.11-3.3,3.23-4,5.56-.59,1.94-1.13,3.65-3.34,3.9-1.58,.18-3.03,.68-4.26,1.72-1.16,.98-1.76,2.32-2.38,3.67-.92,2.02-1.61,4.14-2.35,6.23-.34,.98-.66,2.08-1.25,2.94,.25-.37-.11,.13-.16,.16,.17-.1,.27-.23,.46-.33-.57,.32,.62-.1,.61-.08,0,.01-.23-.17-.38-.29-1.66-1.31-2.91-3-4.85-3.96-4.64-2.29-10.41-.85-15.06,.63-1.08,.34-2.35,1.2-2.23,2.5,.11,1.18,1.55,1.7,2.57,1.38,2.58-.82,5.27-1.58,8-1.62,1.02-.02,1.17-.02,2.1,.17,.29,.06,.58,.14,.87,.23,.53,.16-.39-.18,.09,.04,.14,.06,.28,.12,.41,.18,1.76,.83,2.87,2.4,4.35,3.6,2.09,1.69,4.87,1.46,6.71-.53s2.36-4.82,3.2-7.2c.58-1.64,1.19-3.47,2.17-5.03-.11,.17,.34-.34,.05-.09,.1-.09,.44-.25,.44-.25,.43-.15,.99-.11,1.5-.19,1.74-.27,3.32-1.13,4.58-2.35,1.82-1.76,2.29-4.03,3.1-6.31,.13-.37,.38-.93,.55-1.14-.06,.08,.13-.35,.08-.07,.34-.23,.29-.21-.15,.07,.07-.04,.14-.08,.22-.11,.08-.04,.16-.06,.24-.1-.73,.37-.2,.01,.05,.04-.73-.06,.35,0,.57,.02-.51-.02,.17,.02,.23,.04,.31,.06,.62,.12,.93,.2,.48,.13,.94,.29,1.4,.48,1.64,.68,3.17,1.58,4.67,2.52,2.02,1.27,5.57-2.01,3.1-3.56h0Z"/><path class="cls-1" d="M169.91,192.34c4.83,2.68,9.66,5.36,14.49,8.05,.79,.44,2.36,.91,2.95-.1s-.6-2.19-1.37-2.62c-4.83-2.68-9.66-5.36-14.49-8.05-.79-.44-2.36-.91-2.95,.1s.6,2.19,1.37,2.62h0Z"/><path class="cls-1" d="M149.48,251.8c-.24-1.98-.24-3.97,.06-5.95,.19-1.25,.73-2.49,.81-3.75,.17-2.73-3.17-3.56-5.24-3.98-1.64-.34-5.18-.63-4.21-3.15,.52-1.36,1.28-2.45,1.32-3.97,.05-1.83-.68-3.21-1.74-4.63-2.5-3.36-3.03-7.09-2.38-11.2,.28-1.78-4.57-.94-4.82,.64-.53,3.34-.51,6.91,1.11,9.97,.84,1.59,2.35,2.92,2.82,4.67,.43,1.58-.05,2.94-.75,4.34-.55,1.11-.9,2.22-.2,3.36s1.95,1.57,3.14,1.91c1.63,.46,5.43,.42,6.04,2.45,.13,.44,0,.84-.13,1.3-.24,.89-.46,1.77-.6,2.68-.33,2.18-.33,4.42-.07,6.6,.18,1.52,5.04,.45,4.83-1.3h0Z"/><path class="cls-1" d="M63.95,241.02c1.16-2.78,2.54-5.21,4.59-7.41,.4-.43-.27,.12-.52,.25-.48,.24-.37,.13,.06,.06,.74-.12,1.47-.04,2.21-.1,.84-.07,1.62-.36,2.38-.73,1.19-.57,3.04-1.42,3.43-2.83,.28-1-.13-2.11-.44-3.06-.87-2.65-1.85-5.26-1.66-8.1,.23-3.47,1.99-6.63,4.05-9.35,.32-.42-1.71,.32-1.79,.36-.88,.42-1.95,.94-2.56,1.74-1.9,2.52-3.47,5.32-3.96,8.47-.44,2.83,.23,5.53,1.16,8.2,.37,1.06,.9,2.23,.89,3.37,0,.23-.14,.53-.12,.74l-.04,.08c-.28,.53,.15,.31,1.3-.66,2.23-1.23,1.67-.67,1.01-.73-.74-.07-1.55,0-2.28,.14-2.35,.44-4.74,1.82-6.56,3.33-2.61,2.16-4.21,5.25-5.49,8.33-.22,.54,1.68-.31,1.79-.36,.69-.33,2.23-.94,2.56-1.74h0Z"/><path class="cls-1" d="M62.22,226.53c2.06-1.65,4.12-3.3,6.18-4.94,.3-.24,.56-.63,.49-1.03-.65-3.78,.86-7.62,3.71-9.85,.81-.63,.49-1.49-.44-1.7-1.15-.26-2.51,.17-3.42,.88-3.6,2.81-5.47,7.39-4.69,11.91l.49-1.03c-2.06,1.65-4.12,3.3-6.18,4.94-.8,.64-.5,1.49,.44,1.7,1.14,.26,2.53-.16,3.42-.88h0Z"/><path class="cls-1" d="M27.73,168.51c1.48-.98,3.11-1.75,4.91-1.77,1.42-.02,2.65,.56,4,.89,1.5,.37,3.2,.34,4.36-.83,1.03-1.04,1.21-2.54,1.27-3.93,.03-.67,.01-1.36,.13-2.03,0,0,.1-.41,.1-.4-.05-.35,.21-.03-.17-.04-.57-.03,.04,.12-.24-.02,.25,.12,.5,.23,.75,.36,.78,.39,1.55,.78,2.37,1.06,1.66,.57,3.54,.62,5.08-.31,.59-.36,1.05-.91,1.65-1.24,.77-.42,1.62-.33,2.43-.1,1.03,.29,2.46-.05,2.62-1.28s-1.05-2.29-2.13-2.59c-2.2-.61-4.68-.6-6.61,.75-.47,.33-.92,.91-1.49,1.08-.42,.13-.81-.08-1.13-.22-1.44-.64-2.79-1.54-4.43-1.55-1.83,0-3.08,1.13-3.49,2.86-.32,1.35-.01,2.8-.39,4.14,.03-.11-.19,.61-.16,.38-.06,.46-.21-.18,.02,.08,.26,0,.25,0-.02,0,.26,.05,.25,.05-.04-.01-.33-.08-.66-.19-.98-.3-3.92-1.25-7.9-.94-11.38,1.37-2.43,1.61,.96,5,2.96,3.68h0Z"/><path class="cls-1" d="M4.59,136.43c4.23,1.58,8.16,3.92,11.51,6.97,1.76,1.6,3.3,3.4,4.9,5.16,.99,1.09,2.06,2.41,3.57,2.76,1.83,.43,4.02-.77,5-2.27,.8-1.23,.93-2.78,1.14-4.19,.09-.59,.19-1.18,.38-1.75,.21-.63,.05-.14,0-.19l-1.51,.76-.26,.03c-.27,.16-.1-.11,.1,.06,.61,.54,1.81,1.53,2.62,2.26,1.45,1.32,3.02,2.42,4.88,3.07,2.64,.93,5.47,.63,8.1-.14,.85-.25,2.36-1.19,2.3-2.24-.07-1.13-1.62-.82-2.29-.62-3.7,1.08-6.83-.87-9.43-3.29-.89-.83-1.78-1.83-2.97-2.23-1.61-.54-3.52,.25-4.69,1.36s-1.49,2.5-1.74,4c-.11,.67-.18,1.36-.32,2.03-.05,.25-.12,.49-.2,.74-.18,.6-.5,.64,.68-.06l.89-.52c.56,.04,.71,.03,.45-.02,0-.03-.09,0-.14-.04-.19-.16-.43-.27-.63-.42-.69-.53-1.28-1.2-1.86-1.84-1.53-1.69-3-3.42-4.66-4.97-3.63-3.4-7.95-5.87-12.59-7.61-1.54-.57-5.43,2.34-3.21,3.17h0Z"/><path class="cls-1" d="M70.89,113.75c2.55,.05,5.17,.69,7.15,2.38,.54,.46,1.48,1.41,2.22,2,.45,.36,1.44,1.27,2.08,.86,.52-.34,.35-1.39,.31-1.9-.06-.83-.27-1.86,.12-2.64,1.07-2.14,5.1,.68,6.25,1.42,.05,.03,.59,.45,.74,.3s-.25-.7-.28-.75c-.61-.92-1.53-1.93-2.47-2.53-1.33-.85-2.67-1.68-4.13-2.28-.86-.35-2.05-.8-2.98-.37-1.78,.84-.29,3.46-.8,4.81-.07,.2-.44,.35-.45,.39,0,.01,.17,.15,.29,.24-.31-.24,.27,.27-.16-.15-.98-.96-2.01-1.87-3.11-2.69-2.35-1.74-5.05-2.66-7.97-2.73-.6-.01,.72,1.52,.82,1.64,.42,.48,.88,.94,1.38,1.35,.25,.2,.66,.63,1,.63h0Z"/></svg>