<?xml version="1.0" encoding="UTF-8"?><svg id="Laag_2" xmlns="http://www.w3.org/2000/svg" viewBox="0 0 200 200"><defs><style>.cls-1{fill:#c86022;}.cls-2{fill:#24376e;}.cls-3{fill:#1d1d1b;}</style></defs><g><path class="cls-2" d="M80.94,141.86c5.49-2.45,14.24-5.47,25.22-5.67,12.18-.22,21.82,3.12,27.54,5.67,.58-9.68,1.16-19.35,1.74-29.03-3.22-2.57-13.53-10.13-28.75-10.52-13.94-.35-23.93,5.51-27.5,7.85,.58,10.56,1.16,21.13,1.74,31.69Z"/><path class="cls-3" d="M80.96,143.51c13.14-5.83,27.83-6.96,41.7-3.09,3,.84,5.94,1.88,8.78,3.14,1.65,.73,4.8-.73,4.92-2.68,.5-8.28,.99-16.56,1.49-24.84,.06-1.07,.13-2.13,.19-3.2,.05-.85,.1-1.32-.57-1.89-.52-.43-1.08-.83-1.62-1.22-1.65-1.19-3.39-2.27-5.18-3.24-11.67-6.33-25.44-7.73-38.18-4.01-5.21,1.52-10.12,3.83-14.66,6.79-.56,.36-1.32,1.16-1.28,1.9,.58,10.56,1.16,21.13,1.74,31.69,.12,2.24,5.41,.03,5.3-1.98-.58-10.56-1.16-21.13-1.74-31.69l-1.28,1.9c.66-.43-.53,.32,.06-.04,.23-.14,.46-.29,.69-.42,.58-.35,1.16-.68,1.75-1.01,.62-.34,1.25-.67,1.89-.98,.16-.08,.33-.16,.49-.24-.05,.02,.78-.36,.41-.2s.5-.22,.45-.2c.23-.1,.46-.2,.69-.3,3.9-1.63,8.04-2.76,12.25-3.21,9.22-.98,18.59,.93,26.74,5.32,2.53,1.36,4.93,2.94,7.18,4.73l-.38-.7c-.58,9.68-1.16,19.35-1.74,29.03l4.92-2.68c-14.04-6.23-29.86-7.62-44.73-3.59-3.53,.96-6.98,2.16-10.32,3.64-.96,.42-2.73,1.35-2.63,2.64s1.92,.99,2.67,.65Z"/></g><g><path class="cls-1" d="M135.44,112.84c1.15-9.48,2.11-17.6,2.84-23.9,2.56-22.14,3.2-29.32-.84-32.09-4.71-3.22-13.24,1.3-13.42,.73-.26-.81,19.07-3.25,25.22-15.35,3.42-6.72,2.77-16.21-2.36-21.99-8.95-10.07-26.42-3.07-29.54-1.82-.12,.05-.29,.12-.52,.21-4.74,1.96-10.78,6-10.41,8.9,.43,3.39,9.6,4.78,9.64,4.65,.04-.12-8.28-.55-15.2-6.41-8.38-7.08-5.89-14.64-12.79-19.07-6.46-4.15-15.98-2.24-21.94,1.52-11.54,7.28-14.2,24.4-8.12,34.65,2.8,4.72,8.15,9.12,14.14,11.35,2.06,.77,3.86,1.16,5.16,1.37-1.83-.48-4.26-.91-5.02,.16-.66,.93,2.78,14.78,5.25,33.84,.61,4.72,1.36,11.76,1.66,20.57,3.81-2.48,12.82-7.6,25.3-7.85,16.35-.32,27.66,7.94,30.94,10.52Z"/><path class="cls-3" d="M138.26,113.31c1.64-13.45,3.5-26.93,4.58-40.44,.47-5.85,1.62-14.42-4.49-17.88-3.02-1.7-6.57-1.67-9.87-1.01-1.24,.25-2.46,.61-3.66,.99-.43,.14-.86,.29-1.3,.42-.13,.04-.28,.07-.4,.12-.54,.22,.76,0,.91,.02l1.45,.54-.03-.02,1.02,.93-.02-.03,.39,1.09c.08,.56-.36,.94-.74,1.24,.04-.03,.08-.04,.12-.07,.36-.21-.67,.19-.18,.07,.39-.09,.78-.25,1.17-.36,1.26-.36,2.53-.71,3.79-1.1,3.74-1.16,7.45-2.59,10.84-4.55,3.86-2.22,7.29-5.15,9.57-9.01,2.72-4.59,3.33-10.28,2.29-15.46-1.06-5.31-4.13-10.11-8.79-12.95-4.12-2.51-9.08-3.32-13.84-3.07-7.33,.38-15.38,2.79-21.55,6.83-2.13,1.39-4.9,3.31-5.71,5.88-.76,2.41,.86,4.4,2.76,5.67s4.33,2.04,6.62,2.59c1.42,.35,3.51,.98,4.88,.25,.92-.49,1.01-1.66,.42-2.45-.97-1.3-2.41-1.45-3.86-1.7-.63-.11-1.26-.23-1.88-.38-.15-.03-1.21-.31-.69-.17-.54-.15-1.08-.32-1.61-.5-4.52-1.53-8.7-4.27-11.33-8.39-2.2-3.44-2.93-7.59-5.2-11-2.77-4.16-7.69-6.55-12.57-7.05-9.24-.96-19.05,3.11-24.29,10.89-4.69,6.95-6.17,15.87-4.08,23.98,2.83,10.96,13.61,18.62,24.4,20.45,1.12,.19,2.78-.22,2.76-1.62-.02-1.48-1.67-2.25-2.86-2.56-2.73-.7-8.16-1.29-7.84,2.87,.19,2.48,.76,4.97,1.21,7.41,1.73,9.51,3.41,19.05,4.5,28.67,.65,5.73,1.06,11.48,1.26,17.24,.07,1.96,3.22,3.33,4.81,2.3,6.26-4.06,13.46-6.72,20.92-7.37,4.92-.43,9.83-.04,14.63,1.14,1.82,.45,3.8,1.12,5.64,1.85,.89,.35,1.77,.74,2.64,1.14,.06,.03,.52,.25,.12,.06,.18,.09,.35,.17,.53,.26,.43,.21,.85,.43,1.27,.66,1.44,.78,2.84,1.62,4.2,2.53,.55,.37,1.08,.75,1.62,1.14,.3,.21-.47-.36-.19-.15,.12,.09,.23,.18,.35,.27,.19,.14,.37,.28,.55,.43,1.06,.84,2.7,1.45,3.98,.7,1.15-.67,.94-2.19-.02-2.95-13.89-10.93-32.83-14.67-49.61-8.6-3.72,1.35-7.29,3.07-10.61,5.23l4.81,2.3c-.34-9.5-1.33-18.91-2.75-28.3-1.16-7.68-2.74-15.3-3.95-22.97-.14-.87-.18-1.75-.3-2.62-.04-.29,.21-.47-.06,.16,.15-.37-.35,.33-.35,.35,0,.06-.81-.2,.22-.02,.17,.03,.35,.02,.52,.04,.68,.08,1.35,.25,2.01,.42l-.1-4.18c-8.13-1.38-15.89-7.09-18.46-14.99-2.25-6.9-1.18-14.88,2.4-21.14,3.92-6.85,11.6-11.08,19.48-10.87,3.66,.1,6.82,1.55,8.7,4.67,.83,1.38,1.39,3.05,2,4.59,.75,1.93,1.6,3.83,2.69,5.59,3.03,4.91,7.96,8.42,13.23,10.58,1.97,.81,4.05,1.41,6.14,1.85,.58,.12,1.17,.23,1.76,.32,.51,.08,1.43,.44,.16-.05l-1.72-1.27h0c.14-.81,.28-1.63,.42-2.44h0c.41-.1,.82-.21,1.23-.31-.35,.04,.83,.13,.45,.04-.14-.03-.3-.04-.44-.06-.46-.07-.91-.16-1.36-.25-.28-.06-.56-.13-.85-.19-.53-.11-.03,0,.07,.02-.16-.04-.31-.09-.47-.13-.68-.2-1.36-.43-2.02-.7-.22-.09-.82-.41-.31-.12-.27-.15-.54-.32-.81-.46-.44-.23-.05-.03,.05,.05-.1-.09-.21-.18-.31-.27s-.38-.29,.05,.07c-.09-.08-.22-.5-.14-.19,.07,.26,.14-.15,.02,.06-.1,.19-.03-.08,0-.19,0-.01,0-.12,.11-.4,.24-.61,.69-1.12,1.19-1.64,2.45-2.55,5.85-4.21,9.09-5.52,.32-.13-.6,.23-.03,.01,.15-.06,.3-.12,.45-.17,.45-.17,.89-.33,1.34-.49,1.1-.38,2.21-.73,3.33-1.04,2.94-.82,5.56-1.3,8.49-1.4,1.72-.06,2.71-.01,4.33,.27,.39,.07,.78,.15,1.17,.24,.34,.08,.04,0-.03-.02,.19,.05,.38,.11,.57,.17,.38,.12,.76,.25,1.13,.4,.19,.07,.37,.15,.55,.23,.46,.2-.01-.02,.25,.12,2.87,1.48,5.04,4.11,6.24,7.39,1.28,3.48,1.51,7.45,.66,11.07-1.53,6.5-6.35,10.82-12.12,13.74-3.99,2.02-8.16,3.04-12.53,4.47-.63,.2-1.37,.4-1.82,.92-1.68,1.91,1.68,3.78,3.28,3.74,1-.02,1.96-.43,2.9-.73,1.4-.45,2.84-.87,4.3-1.09,.44-.07,1.3-.13,1.93-.12,.59,0,1.21,.13,1.71,.36-.49-.22,.38,.26,.37,.26-.1,.01-.54-.5-.16-.1,.08,.08,.18,.18,.27,.25,.45,.36-.32-.51-.01-.02,.14,.23,.31,.47,.46,.69-.03-.05-.2-.5-.02-.02,.07,.17,.15,.34,.21,.52,.12,.31,.21,.64,.29,.96,.02,.07,.15,.7,.09,.37-.05-.28,.06,.37,.07,.5,.79,5.58-.15,11.52-.74,17.08-.92,8.74-1.98,17.46-3.03,26.18-.3,2.51-.6,5.02-.91,7.53-.17,1.37,1.78,2.38,2.86,2.56,1.27,.21,2.59-.23,2.76-1.62Z"/></g><g><path class="cls-1" d="M74.6,198.23c18.8-.02,37.6-.03,56.4-.05,1.2-10.45,3.63-18.15,5.66-23.29,4.51-11.44,6.77-17.17,7.81-18.91,1.83-3.05,3.24-4.83,2.77-7.16-.5-2.45-2.95-4.83-14.41-8.54-9.69-3.14-14.54-4.71-20.9-5.1-15.34-.95-39.22,4.15-43.04,16.9-1.73,5.78,2.21,8.15,4.65,22.15,1.7,9.79,1.54,18.16,1.06,23.99Z"/><path class="cls-3" d="M76.11,199.87c18.8-.02,37.6-.03,56.4-.05,.62,0,1.1-.1,1.17-.76,.88-7.54,2.58-15,5.29-22.1,2.29-6,4.57-12.06,7.22-17.91,.99-2.18,2.6-4.07,3.43-6.31,.75-2.03,.32-4.01-.98-5.66-1.49-1.88-3.71-3.13-5.8-4.2-3.47-1.77-7.21-3.01-10.9-4.21-6.83-2.21-13.69-4.55-20.89-5.09-6.42-.48-12.99,.07-19.29,1.31s-12.57,3.19-17.88,6.72c-4.03,2.69-7.75,6.74-8.06,11.8-.12,1.89,.46,3.71,1.06,5.47,.92,2.68,1.88,5.33,2.6,8.07,2.19,8.29,2.99,17,2.72,25.56-.05,1.61-.14,3.23-.27,4.84s5.21,3.69,5.36,1.76c.61-7.68,.34-15.42-.9-23.02-.61-3.73-1.46-7.42-2.62-11.01-.7-2.15-1.58-4.26-2.17-6.44-2.86-10.52,10.2-16.7,18.23-19.07,6.05-1.79,12.41-2.74,18.72-2.85,5.94-.1,11.39,.86,16.95,2.55,4.01,1.22,8.03,2.46,11.96,3.92,1.29,.48,2.67,1.05,4.01,1.71,.12,.06,.24,.12,.36,.18,.41,.21-.4-.23-.02,0,.23,.13,.47,.26,.7,.4,.21,.13,.41,.26,.62,.39,.26,.17-.17-.12-.18-.12,.12,.09,.24,.18,.36,.27,.15,.12,.3,.25,.45,.38-.32-.28-.18-.17,.03,.06,.11,.12,.21,.24,.31,.36-.27-.32-.06-.11,.05,.1,.08,.16,.38,.81,.24,.42,.12,.35,.2,.7,.23,1.07,.26,2.64-2.16,5-3.26,7.23-2.41,4.88-4.22,10.1-6.21,15.15-2.58,6.53-4.68,13.09-5.9,20.02-.38,2.15-.68,4.32-.93,6.49l1.17-.76c-18.8,.02-37.6,.03-56.4,.05-1.1,0-1.47,.72-.72,1.56,.84,.94,2.45,1.72,3.73,1.72Z"/></g></svg>