<?xml version="1.0" encoding="UTF-8"?><svg id="Laag_2" xmlns="http://www.w3.org/2000/svg" viewBox="0 0 200 200"><defs><style>.cls-1{fill:#65403e;}.cls-2{fill:#ca8d5f;}.cls-3{fill:#1d1d1b;}</style></defs><g><path class="cls-2" d="M133.22,115.41c1.42-20.9,8.17-33.81,14.4-41.88,9.48-12.29,18.27-14.07,22.39-26.57,3.21-9.74,3.34-25.23-6.53-33.29-8.25-6.75-20.45-5.83-28.4-2.61-13.94,5.65-12.84,17.58-24.48,20.56-9.72,2.49-12.75-5.26-31.01-7.83-9.22-1.3-22.1-3.12-31.33,4.57-10.27,8.54-9.64,23.62-9.47,27.74,.66,15.96,10.3,26.46,13.15,29.35,.61-3.16,1.71-7.21,3.78-11.62,2.53-5.4,5.6-9.41,8.03-12.12-3.09,3.45-9.48,11.52-11.8,23.74-2.94,15.45,2.5,27.58,4.47,31.52,7.3-3.44,20.05-8.31,36.62-8.93,18.3-.68,32.53,4.14,40.18,7.37Z"/><path class="cls-3" d="M136.04,114.97c.81-11.6,3.46-23.38,9.2-33.5,2.43-4.29,5.37-8.31,8.8-11.86,3.9-4.04,8.51-7.35,12.26-11.54,7.3-8.15,9.75-19.88,7.9-30.53-.91-5.28-3.12-10.45-7.01-14.22-4.41-4.28-10.31-6.41-16.37-6.84-5.66-.4-11.61,.57-16.84,2.77s-9.46,5.77-12.9,10.31c-1.3,1.71-2.49,3.51-3.84,5.19-.16,.2-.33,.4-.49,.6,.32-.38-.24,.26-.24,.27-.29,.32-.59,.63-.9,.92-.37,.36-.76,.7-1.17,1.03-.67,.53,.45-.29-.27,.19-.3,.2-.6,.4-.91,.58-.24,.14-.48,.27-.73,.4,.47-.25-.08,.04-.2,.09-.51,.21-1.02,.41-1.54,.57-.6,.19-1.57,.35-2.69,.5-.69,.09,.41,0-.02,0-.17,0-.35,0-.52,0-.41,0-.81-.04-1.22-.07-.12,0-.78-.12-.12,0-.2-.03-.39-.07-.58-.11-.45-.1-.9-.22-1.35-.35-.72-.22-1.43-.49-2.13-.78-.66-.27,.44,.19-.22-.09-.2-.09-.41-.18-.61-.27-.42-.19-.84-.38-1.26-.57-2.03-.93-4.07-1.85-6.15-2.66-5.51-2.13-11.27-3.14-17.11-3.88s-11.83-1.12-17.62,.05c-6.42,1.29-12.19,4.44-16.36,9.53-5.71,6.97-7.21,16.47-6.89,25.24,.38,10.43,4.39,20.32,11.09,28.3,.79,.94,1.62,1.85,2.48,2.72,1.32,1.34,4.76,.65,5.16-1.36,1.65-8.37,5.52-16.43,11.09-22.67,.81-.91,1.25-2.29-.01-3.06-1.14-.7-3.11-.32-3.99,.67-5.06,5.66-8.98,12.3-11.22,19.57-2.92,9.46-2.93,19.61-.23,29.12,.86,3.02,1.99,5.95,3.39,8.76,.6,1.21,2.27,1.52,3.45,.97,19.3-9.06,41.34-11.19,62.02-5.73,4.31,1.14,8.53,2.58,12.64,4.31,2.51,1.06,6.15-2.81,2.83-4.21-20.56-8.65-43.78-9.78-65.16-3.53-4.72,1.38-9.33,3.13-13.78,5.22l3.45,.97c-7.12-14.27-7-31.56,1.1-45.42,.94-1.61,1.97-3.16,3.08-4.66,.48-.64,.97-1.27,1.47-1.88,.11-.13,.63-.75,.45-.54-.19,.23,.39-.45,.5-.57l-4.01-2.39c-6.28,7.03-10.7,15.53-12.52,24.81l5.16-1.36c-5.85-5.95-10.1-13.43-11.91-21.59-1.77-7.97-1.38-17.37,1.91-24.9,2.01-4.6,5.6-8.57,10.18-10.54,5.07-2.19,10.76-2.33,16.27-1.89s11.05,1.2,16.33,2.8c4.2,1.27,7.72,3.09,11.78,4.79,3.28,1.37,6.68,2.05,10.23,1.47,4.65-.77,8.78-3.12,11.86-6.67,2.9-3.34,5.1-7.26,8.16-10.14,3.5-3.3,8.22-5.22,12.85-6.01,5.15-.88,10.78-.62,15.54,1.75s8.09,6.45,9.86,11.4,1.99,9.8,1.48,14.74-1.91,9.94-4.72,14.07-7.03,7.28-10.76,10.69c-4.08,3.73-7.77,7.9-10.82,12.51-5.83,8.8-9.26,18.86-11.02,29.22-.58,3.38-.96,6.79-1.2,10.21-.21,2.96,5.46,1.79,5.64-.89Z"/></g><g><path class="cls-1" d="M55.46,132.71c.03-5.25,.07-10.5,.1-15.75,8-3.5,20.61-7.89,36.62-8.93,18.14-1.18,32.72,2.44,41.45,5.34-.53,5.05-1.05,10.1-1.58,15.14-8.27-2.72-22.09-6.14-39.31-5.1-16.58,1.01-29.48,5.73-37.29,9.29Z"/><path class="cls-3" d="M57.88,134.14c.03-5.25,.07-10.5,.1-15.75l-.26,.36c19.94-8.7,42.27-11.31,63.66-7.25,4.61,.88,9.14,2.06,13.59,3.53l-3.76-3.09c-.53,5.05-1.05,10.1-1.58,15.14l1.08-.24c-20.6-6.76-43.05-7.23-63.84-1.02-4.64,1.38-9.17,3.09-13.58,5.09-.87,.4,.75,1.74,1.07,2.01,.56,.47,2.39,1.97,3.26,1.58,19.37-8.8,41.21-11.59,62.15-7.78,4.62,.84,9.16,2,13.62,3.46,.38,.13,1.02,.33,1.08-.24,.53-5.05,1.05-10.1,1.58-15.14,.06-.56-.98-1.36-1.33-1.64-.71-.59-1.55-1.15-2.44-1.45-20.84-6.89-43.52-7.57-64.68-1.62-4.85,1.36-9.6,3.07-14.21,5.08-.2,.04-.28,.16-.26,.36-.03,5.25-.07,10.5-.1,15.75,0,1.01,1.86,2.1,2.59,2.53,.34,.2,2.25,1.27,2.25,.32Z"/></g><g><path class="cls-2" d="M49.79,197.69c31,.04,62,.08,93,.12,1.04-4.7,2.69-10.34,5.36-16.45,2.33-5.33,4.91-9.83,7.31-13.47,.47,.57,1.32,1.44,2.63,1.95,2.91,1.13,5.73-.43,6.32-.75,4.75-2.63,5.11-10.75,5.03-12.86-.48-12.82-25.28-25.27-46.42-30.2-48.2-11.25-85.66,14.63-91.94,23.8-.72,1.06-2.21,3.23-2.25,6.17-.09,6.86,7.71,10.54,13.09,17.01,3.75,4.51,7.64,11.94,7.87,24.69Z"/><path class="cls-3" d="M48.8,199.93c24.17,.03,48.33,.06,72.5,.1,6.83,0,13.67,.02,20.5,.03,1.6,0,3.26-1.26,3.61-2.82,2.29-10.23,6.42-20.02,12.17-28.78l-4.55,1.03c3.33,3.93,8.87,3.6,12.9,.89,3.45-2.32,5.13-6.28,5.8-10.26,.47-2.78,.6-5.74-.36-8.43-1.22-3.43-3.52-6.21-6.13-8.69-6.7-6.37-15.47-10.58-23.98-13.93-9.81-3.87-20.09-6.45-30.58-7.53-18.28-1.88-37.01,1.16-53.86,8.47-6.19,2.68-12.2,5.93-17.69,9.86-3.61,2.58-7.36,5.49-9.99,9.13s-3.82,7.77-2.11,11.92,5.37,6.74,8.43,9.55c2.84,2.6,5.36,5.41,7.22,8.79,1.97,3.57,3.14,7.51,3.8,11.52,.44,2.65,.64,5.34,.7,8.02,.03,1.4,2.16,1.18,2.98,.84,1.27-.54,2.29-1.65,2.26-3.07-.18-8.15-1.87-16.57-6.65-23.34-2.34-3.32-5.42-5.99-8.4-8.71-2.62-2.39-5.76-5.26-5.89-9.07-.07-1.86,.71-3.57,1.63-4.92,.19-.28,.39-.55,.59-.82,.18-.24,1.09-1.19,.35-.45,1.33-1.33,2.62-2.65,4.07-3.86,.19-.16,.39-.32,.59-.48,.13-.1,.25-.2,.38-.31,.31-.25-.46,.36-.14,.11,.52-.4,1.04-.8,1.57-1.19,1.06-.78,2.15-1.53,3.25-2.25,1.21-.79,2.44-1.56,3.68-2.29,.64-.38,1.29-.75,1.94-1.11,.35-.2,.71-.39,1.07-.58-.11,.06-.48,.25,.04-.02,.25-.13,.49-.26,.74-.39,14.09-7.3,29.7-11.23,45.64-11.42,9.8-.11,19.53,1.22,28.97,3.82,8.95,2.47,17.76,5.88,25.76,10.62,3.47,2.05,6.84,4.38,9.74,7.2,2.12,2.06,4.19,4.68,5.02,7.47,.19,.63,.33,1.28,.4,1.94,.03,.29,.05,.57,.06,.86,0,.13,0,.44,0-.07,0,.14,0,.27,0,.41-.05,1.36-.17,2.72-.43,4.06-.28,1.44-.83,3.16-1.49,4.2-.2,.31-.42,.63-.67,.91,.27-.3-.06,.03-.1,.07-.64,.6,.28-.16-.15,.14-.15,.11-.33,.19-.48,.31-.42,.33,.63-.27,.24-.12-.31,.12-.78,.37-.98,.45-1.69,.58-3.62,0-4.85-1.45s-3.7-.28-4.55,1.03c-6.22,9.49-10.69,19.99-13.17,31.06l3.61-2.82c-24.17-.03-48.33-.06-72.5-.1-6.83,0-13.67-.02-20.5-.03-1.38,0-2.9,.98-3.44,2.25-.5,1.18,.17,2.24,1.47,2.24Z"/></g></svg>