<?xml version="1.0" encoding="UTF-8"?><svg id="Laag_2" xmlns="http://www.w3.org/2000/svg" viewBox="0 0 200 200"><defs><style>.cls-1{fill:#1d1d1b;}.cls-2{fill:#375e9b;}</style></defs><g><path class="cls-1" d="M54.57,135.55c-.25-5.77-.5-11.53-.74-17.3,8.48-3.81,23.29-9.14,42.36-9.37,22.8-.27,40.13,6.89,48.84,11.22-.21,5.9-.41,11.79-.62,17.69-12.76,2.01-28.38,3.45-46.18,2.93-16.8-.5-31.52-2.63-43.65-5.17Z"/><path class="cls-1" d="M57.08,135.72c-.25-5.77-.5-11.53-.74-17.3l-.97,2.3c2.07-.93,3.65-1.58,5.85-2.4,2.62-.98,5.27-1.85,7.95-2.62,6.54-1.87,13.27-3.13,20.05-3.71,13.78-1.19,27.81,.52,40.95,4.81,2.7,.88,5.36,1.87,7.98,2.96,1.15,.48,2.29,.98,3.43,1.5,.49,.23,.99,.46,1.48,.69,.18,.09,.75,.36,.26,.12,.25,.12,.5,.24,.75,.37l-1.55-3.18c-.21,5.9-.41,11.79-.62,17.69l1.56-1.85c-23.42,3.67-47.32,3.94-70.82,.83-5.94-.78-11.86-1.78-17.73-3-1.36-.28-2.64,.26-2.84,1.77-.17,1.3,.77,3.19,2.18,3.49,23.97,4.99,48.48,6.53,72.88,4.51,6.1-.5,12.18-1.24,18.23-2.19,.82-.13,1.53-1.04,1.56-1.85,.21-5.9,.41-11.79,.62-17.69,.04-1.14-.42-2.62-1.55-3.18-10-4.97-20.61-8.44-31.63-10.25-14.85-2.45-30.24-1.69-44.8,2.13-5.92,1.55-11.68,3.63-17.26,6.13-.85,.38-1.01,1.51-.97,2.3,.25,5.77,.5,11.53,.74,17.3,.06,1.41,1.42,2.84,2.82,2.92,1.54,.09,2.25-1.25,2.19-2.6Z"/></g><g><path class="cls-2" d="M53.25,119.29c2.91-22.67-1.75-37.62-7.03-47.39-7.15-13.21-15.38-16.83-15.2-26.97,.3-17.06,24.04-28.49,26.93-29.84,4.67-2.18,21.12-9.85,39.31-2.63,17.82,7.07,24.64,23.4,26.65,28.23,4.31,10.32,4.49,19.68,4.18,25.05,.22-3.39,.17-7.58-.59-12.3-.47-2.9-1.12-5.48-1.83-7.73,18.35-10.81,38.73-9.84,49.64,.99,5.88,5.83,11.46,16.95,7.93,25.64-4.17,10.26-17.42,8.32-27.82,19.72-7.92,8.68-9.71,20.2-9.84,29.2-7.82-4.31-24.41-12.09-46.79-12.37-21.41-.27-37.6,6.45-45.54,10.4Z"/><path class="cls-1" d="M55.1,121.41c2.1-16.6,.66-33.86-7.4-48.78-2.39-4.43-5.27-8.52-8.4-12.45-1.25-1.57-2.2-2.7-3.45-4.41-.15-.2-.29-.4-.43-.6-.04-.06-.38-.55-.2-.28,.22,.33-.29-.45-.26-.4-.1-.16-.2-.32-.3-.48-.24-.4-.57-.99-.8-1.54-2.69-6.4,.22-13.71,4.22-18.84,6.19-7.97,15.44-13.72,24.68-17.58,7.49-3.13,15.63-4.75,23.75-4.06,9.29,.79,18.23,4.67,24.99,11.13,1.26,1.21,2.25,2.3,3.42,3.71,.08,.09,.47,.59,.16,.2,.12,.15,.24,.31,.36,.46,.23,.3,.46,.61,.69,.92,.25,.34,.49,.68,.73,1.02,.1,.15,.21,.3,.31,.45,.12,.18,.1,.15-.05-.08,.07,.11,.15,.22,.22,.33,.39,.61,.79,1.23,1.16,1.85,.17,.28,.33,.56,.5,.84,.1,.17,.2,.34,.29,.52,.16,.29-.19-.35,.05,.1,.59,1.09,1.15,2.19,1.67,3.31,.2,.44,.4,.88,.6,1.32,.09,.21,.18,.42,.27,.62,.06,.13,.17,.41-.07-.17,.05,.12,.1,.24,.15,.36,.87,2.07,1.64,4.17,2.27,6.33,1.28,4.4,1.94,9,2.08,13.57,.05,1.62,.02,3.23-.07,4.85-.07,1.18,.89,2.41,1.62,3.24,.16,.18,2.02,1.95,2.08,.99,.43-7.07-.45-14.1-2.55-20.86v1.05c9.16-5.35,19.86-8.5,30.53-7.36,4.44,.47,8.78,1.7,12.68,3.9,1.72,.97,3.32,2.14,4.74,3.51s2.52,2.82,3.56,4.53c4.46,7.31,5.61,17.81-2.18,23.3-3.25,2.29-7.11,3.58-10.69,5.23-4.46,2.05-8.63,4.63-12.01,8.24-7.51,8-10.09,19.06-10.26,29.75l.72-.17c-9.87-5.43-20.68-9.2-31.78-11.09-15.12-2.57-30.75-1.54-45.44,2.86-5.4,1.62-10.65,3.7-15.7,6.2-.9,.45,2.1,5.35,3.44,4.68,10.43-5.17,21.74-8.51,33.31-9.77,14.76-1.61,29.89,.13,43.87,5.13,5.02,1.79,9.89,3.99,14.56,6.56,.17,.09,.71,.22,.72-.17,.17-10.08,2.4-20.54,9.16-28.36,3.48-4.03,7.91-6.9,12.71-9.11,3.71-1.71,7.74-3.03,11.08-5.46,8.5-6.2,6.2-17.82,1.81-25.82-2.57-4.67-5.96-9-10.22-12.24-3.74-2.84-8.12-4.75-12.69-5.78-12.05-2.71-24.85,.64-35.32,6.76-.3,.17-.05,.88,0,1.05,1.92,6.2,2.68,12.72,2.29,19.19l3.7,4.24c.82-14.73-4.03-29.59-12.98-41.3-5.28-6.9-12.03-12.71-20.1-16.08-9.43-3.94-19.73-4.31-29.57-1.79s-19.95,7.97-27.64,14.93c-5.11,4.62-9.73,10.68-10.4,17.76-.36,3.79,.46,7.47,2.24,10.82,1.9,3.58,4.72,6.91,7.04,9.84,4.85,6.14,8.47,12.62,10.73,19.97,2.65,8.63,3.37,17.81,2.9,26.79-.15,2.8-.41,5.59-.76,8.37-.14,1.13,.93,2.45,1.62,3.24,.18,.21,1.95,1.95,2.08,.99Z"/></g><g><path class="cls-2" d="M45.08,198.2h91.82c2.1-5.19,5.68-12.48,11.9-19.77,10.19-11.96,20.02-15.23,19.96-22.32-.05-6.27-7.79-10.94-11.61-13.19-25.48-14.97-41.87,3.19-84.98-3.63-12.75-2.02-25.22-5.8-33.94,1.35-.38,.31-7.12,6.01-7.27,14.17-.11,6.24,3.69,9.86,7.09,15.7,3.33,5.71,6.83,14.51,7.04,27.69Z"/><path class="cls-1" d="M43.65,200.03h91.82c1.4,0,3.46-.68,4.05-2.13,3.97-9.78,9.96-18.51,17.77-25.64,3.16-2.88,6.64-5.42,9.68-8.43,2.28-2.26,4.5-4.99,4.52-8.37,.03-4.27-3.07-7.73-6.22-10.24-2.93-2.33-6.26-4.26-9.62-5.89-6.1-2.97-12.78-4.37-19.55-4.33-6.92,.04-13.76,1.22-20.59,2.21-8.42,1.22-16.88,2.05-25.4,1.81-5.37-.15-10.73-.66-16.04-1.48s-10.72-2.04-16.14-2.61-10.59-.39-15.56,1.54c-3.23,1.26-5.97,3.25-8.29,5.79-2.67,2.92-4.69,6.49-5.52,10.37-1.09,5.11,.73,9.61,3.48,13.84,2.33,3.58,4.59,7.1,6.22,11.06s2.84,8.52,3.46,12.96c.39,2.81,.58,5.64,.63,8.47,.04,2.34,5.49,.51,5.46-1.52-.17-8.99-1.84-18.08-6.01-26.11-2.09-4.02-5.16-7.53-6.97-11.69-1.84-4.24-1.3-8.82,.84-12.84,.78-1.47,1.79-2.81,2.9-4.05,.13-.15,.64-.68,.26-.29,.19-.19,.38-.39,.58-.57,.21-.2,.42-.39,.64-.58,2.96-2.47,6.89-3.08,10.82-3,5.16,.1,10.25,1.13,15.31,2.04,5.32,.95,10.66,1.72,16.06,2.09,8.83,.6,17.68,.19,26.45-.9,6.8-.85,13.55-2.15,20.39-2.69,3.02-.24,5.63-.3,8.84,0s5.97,.9,8.96,1.94c3.25,1.13,6.29,2.68,9.22,4.46,3.23,1.97,6.74,4.31,8.68,7.65,1.65,2.82,1.51,5.82-.2,8.08-.95,1.26-1.77,2.01-3.06,3.15-1.58,1.39-3.21,2.72-4.81,4.08-8.25,7.01-15.18,15.21-20.02,24.93-.88,1.76-1.68,3.55-2.42,5.37l4.05-2.13H46.52c-1.37,0-2.9,.54-3.76,1.66-.68,.89-.37,1.99,.88,1.99Z"/></g></svg>