<?xml version="1.0" encoding="UTF-8"?><svg id="Laag_2" xmlns="http://www.w3.org/2000/svg" viewBox="0 0 200 200"><defs><style>.cls-1{fill:#929292;}.cls-2{fill:#1d1d1b;}</style></defs><g><path class="cls-2" d="M48.35,135.89c4.72-14.64,9.44-29.29,14.16-43.93,10.23-2.45,24.93-4.73,42.54-3.36,17.5,1.36,31.67,5.84,41.43,9.8-2.66,13.34-5.32,26.67-7.98,40.01-30.05-.84-60.09-1.68-90.14-2.51Z"/><path class="cls-2" d="M51,136.1c4.72-14.64,9.44-29.29,14.16-43.93l-2.38,1.84c22.22-5.29,45.57-4.94,67.58,1.21,5.09,1.42,10.1,3.14,15,5.13l-1.53-2.14c-2.66,13.34-5.32,26.67-7.98,40.01l3.09-1.86c-23.41-.65-46.81-1.31-70.22-1.96-6.64-.19-13.28-.37-19.92-.56-1.22-.03-2.81,.5-3.09,1.86-.27,1.28,1.04,2.23,2.2,2.26,23.41,.65,46.81,1.31,70.22,1.96,6.64,.19,13.28,.37,19.92,.56,1.2,.03,2.82-.49,3.09-1.86,2.66-13.34,5.32-26.67,7.98-40.01,.22-1.11-.63-1.77-1.53-2.14-15.43-6.25-31.97-9.78-48.62-10.27-8.7-.26-17.44,.27-26.04,1.62-3.39,.53-6.77,1.19-10.12,1.98-1.3,.31-2.46,.59-2.95,1.97-.45,1.24-.81,2.52-1.22,3.78-.79,2.44-1.57,4.88-2.36,7.32-3.53,10.94-7.05,21.89-10.58,32.83-.41,1.29,1.15,2.18,2.2,2.26,1.32,.1,2.68-.56,3.09-1.86Z"/></g><g><path class="cls-1" d="M33.45,198.54h103.46c4.58-6.13,30.5-41.39,17.95-54.37-2.4-2.48-5.45-3.36-8.05-4.06-25.9-6.91-50.97-6.78-61.41-6.66-23.89,.27-42.45,1.2-60.93,8.74-2.73,1.11-5.39,2.34-7.55,4.87-12.43,14.53,12.99,47.06,16.52,51.49Z"/><path class="cls-2" d="M35.69,200.02c17.74,0,35.49,0,53.23,0h46.48c1.08,0,2.17,.02,3.25,0,.57,0,.6-.02,.92-.41,1.89-2.32,3.55-4.89,5.22-7.37,2.58-3.84,5.03-7.78,7.27-11.83,2.42-4.38,4.63-8.92,6.27-13.65,1.41-4.06,2.52-8.43,2.26-12.77s-2.13-7.87-5.63-10.46c-3.22-2.39-6.74-3.93-10.59-4.95-4.12-1.09-8.28-2.03-12.46-2.82-13.85-2.62-27.96-3.73-42.05-3.82-13.44-.08-27.03,.08-40.37,1.81-6.72,.87-13.38,2.22-19.85,4.26-3.33,1.05-6.68,2.21-9.83,3.72-2.68,1.29-5.05,3.13-6.58,5.71-4.64,7.79-.88,18.17,2.58,25.65s8.35,15.05,13.53,21.87c.58,.76,1.17,1.52,1.76,2.27,.69,.86,1.84,1.46,2.79,2,.41,.23,1.03,.7,1.5,.73,.06,0,.6,.19,.38-.09-4.27-5.36-8.18-11.05-11.59-17-2.4-4.19-4.56-8.55-6.15-13.11-1.45-4.17-2.49-8.68-2.05-13.12,.48-4.79,2.97-8.88,7.2-11.28,2.91-1.65,6.19-2.77,9.35-3.83s6.4-1.97,9.67-2.72c14.09-3.24,28.68-3.64,43.08-3.84,11.69-.16,23.36,.11,35,1.38,7.97,.87,15.9,2.16,23.71,3.99,1.99,.46,3.97,.95,5.93,1.51,.73,.21,1.47,.44,2.18,.72,.1,.04,.33,.2,.44,.19,.31-.03-.59-.26-.62-.41,.03,.19,.71,.64,.86,.8,1.17,1.25,1.99,2.82,2.48,4.45,1.15,3.82,.59,8.03-.35,11.83-1.14,4.62-3,9.05-5.1,13.3-3.74,7.58-8.32,14.76-13.25,21.61-.37,.51-.74,1.02-1.12,1.53-.22,.3-.53,.96-.85,1.15s-1.06,.04-1.42,.04H31.21c-.47,0,1.32,1.31,1.43,1.39,.76,.5,2.07,1.57,3.05,1.57Z"/></g><g><path class="cls-1" d="M62.12,92.86c9.96-2.72,24.86-5.52,42.92-4.26,18,1.25,32.39,6.06,41.92,10.13,3.22-15.07,9.29-22.87,14.09-27.18,8.24-7.39,15.38-6.85,18.84-14.65,2.97-6.69,2.07-16.88-3.99-22.38-7.79-7.07-20.91-.58-23.21,.53-1.23,.6-2.23,1.19-2.94,1.64-.33,3.45-1.22,5.93-1.96,7.55-1.69,3.68-4.65,7.32-4.61,7.35,0,0,.03-.02,.03-.02,6.99-8.04,8.61-19.26,4.32-27.31-6.05-11.34-20.74-10.56-22.66-10.42-2.66,.19-3.23,.69-10.09,2.6,0,0-10.45,4.31-20.47,4.75-16.39,.72-29.43-13.13-43.67-7.19-6.34,2.64-12.41,9.1-12.81,15.79-.66,10.82,13.41,23.7,36.74,28.32-5.34-1.67-10.68-3.34-16.02-5.01,1.96,3.21,5.5,9.96,6.36,19.39,.86,9.46-1.43,16.83-2.78,20.38Z"/><path class="cls-2" d="M63.32,95.19c22.61-6.15,46.72-6.08,69.26,.39,5.17,1.49,10.25,3.3,15.2,5.4,.25,.11,.82,.09,.9-.28,1.87-8.64,5.1-17.39,11.06-24.09,2.8-3.14,6.14-5.7,9.82-7.75s7.69-3.66,10.33-7.08,3.57-8,3.45-12.21c-.14-4.78-1.59-9.56-4.41-13.45s-6.72-6.58-11.58-7.09c-3.93-.41-7.91,.53-11.59,1.85-1.39,.5-2.74,1.07-4.07,1.71-.89,.43-1.76,.88-2.61,1.38-.55,.33-.9,.51-1.09,1.13-.24,.81-.21,1.78-.38,2.61-.53,2.55-1.56,4.93-2.89,7.16-.66,1.11-1.37,2.18-2.12,3.22-.32,.45-.91,1-1.1,1.52-.36,.96,.4,2.21,.96,2.92,.34,.43,1.58,1.89,2.26,1.29,1.43-1.26,2.58-3.28,3.5-4.92,1.02-1.82,1.83-3.76,2.41-5.76,1.1-3.81,1.4-7.84,.72-11.75-1.33-7.66-6.34-14.26-13.42-17.48-4.21-1.91-9.07-2.64-13.68-2.43-1.63,.08-3.16,.42-4.72,.89-2.5,.75-5.02,1.41-7.47,2.32-7.37,2.74-15.69,4.9-23.6,4.01s-14.88-4.68-22.33-6.94c-3.41-1.03-7.02-1.77-10.6-1.52-3.92,.27-7.67,1.76-10.84,4.05-5.83,4.22-10.04,11.19-8.17,18.51,1.55,6.08,5.82,11.27,10.62,15.15,6.28,5.1,13.8,8.54,21.54,10.78,2.21,.64,4.46,1.17,6.72,1.62,1.13,.23,1.07-.91,.79-1.7-.36-1.04-1.28-2.46-2.41-2.81-5.34-1.67-10.68-3.34-16.02-5.01-1.84-.57-.49,2.38-.16,2.92,.4,.67-.11-.22,.14,.24,.13,.23,.26,.46,.39,.69,.31,.56,.61,1.12,.89,1.7,.62,1.25,1.11,2.38,1.6,3.69,1.33,3.56,2.17,7.29,2.53,11.08,.62,6.67-.35,13.49-2.72,19.75-.4,1.06,.51,2.45,1.18,3.2,.33,.38,1.85,1.8,2.25,.75,5.29-14,3.4-29.7-4.31-42.41l-.16,2.92c5.34,1.67,10.68,3.34,16.02,5.01l-1.62-4.51c-7.76-1.56-15.44-4.1-22.2-8.28-2.5-1.54-5.22-3.6-7.07-5.5-.45-.46-.88-.94-1.29-1.43-.23-.27-.45-.55-.67-.82,.3,.38-.26-.35-.34-.47-.19-.27-.38-.55-.56-.84-.07-.1-.13-.21-.2-.31-.23-.37,.2,.36-.01-.01-.31-.55-.61-1.11-.87-1.68-.12-.27,.02,.03,.03,.07-.06-.14-.12-.28-.17-.42-.1-.28-.2-.56-.3-.84-.04-.1-.07-.21-.1-.31-.11-.35,.07,.28-.02-.07-.08-.31-.15-.62-.21-.94-.2-1.07-.24-1.82-.13-2.96,.35-3.83,2.65-7.36,5.34-9.99s6.11-4.79,9.81-5.67c3.29-.78,6.73-.61,10.01,.13,7.01,1.59,13.45,5.04,20.42,6.81,3.73,.95,7.54,1.42,11.38,1.15,4.25-.3,8.46-1.2,12.54-2.38,4.81-1.39,9.44-3.26,14.3-4.5,3.07-.78,6.51-.58,9.61-.08,2.51,.4,5.05,1.14,7.3,2.34,1.26,.67,2.43,1.47,3.48,2.44,.91,.84,1.68,1.82,2.27,2.88,3.49,6.35,2.11,14.54-1.24,20.63-.84,1.52-1.86,3.42-3.18,4.58l3.22,4.2c.25-.66,.96-1.32,1.37-1.9,.97-1.39,1.89-2.82,2.68-4.32,1.48-2.83,2.28-5.9,2.61-9.07l-.29,.64c4.58-2.9,10.15-5.04,15.59-5.31,3.28-.16,6.78,.46,9.22,2.83,2.12,2.07,3.14,5.15,3.53,8.22,.43,3.39,0,6.98-1.36,10.12s-3.89,5.36-6.93,7.06c-3.41,1.91-6.9,3.57-10,5.99-2.23,1.75-4.22,3.77-5.99,5.98-5.31,6.62-8.3,14.73-10.08,22.94l.9-.28c-21.69-9.22-45.77-12.53-69.13-9.25-5.43,.76-10.8,1.88-16.09,3.32-1.81,.49,.89,5.06,2.39,4.65Z"/></g></svg>