<?xml version="1.0" encoding="UTF-8"?><svg id="Laag_1" xmlns="http://www.w3.org/2000/svg" viewBox="0 0 400 158.55"><defs><style>.cls-1{stroke-width:1px;}.cls-1,.cls-2{fill:#7d4e24;}.cls-1,.cls-2,.cls-3,.cls-4{stroke:#1d1d1b;stroke-miterlimit:10;}.cls-2,.cls-3,.cls-4{stroke-width:1.13px;}.cls-3{fill:#ca9e67;}.cls-4{fill:#b17f4a;}</style></defs><rect class="cls-3" x=".57" y="49.91" width="133.66" height="32.7"/><rect class="cls-3" x=".57" y="17.59" width="133.66" height="32.7"/><rect class="cls-3" x="265.75" y="49.72" width="133.66" height="32.7"/><rect class="cls-3" x="265.75" y="17.4" width="133.66" height="32.7"/><rect class="cls-3" x="134.24" y="17.4" width="131.51" height="65.21"/><rect class="cls-4" x=".57" y="82.03" width="398.84" height="8.32"/><rect class="cls-4" x=".57" y="11.31" width="398.84" height="6.29"/><path class="cls-4" d="M399.41,11.31H.57C3.94,7.7,7.31,4.1,10.67,.5c126.77-.03,253.53-.05,380.3-.08,2.81,3.63,5.63,7.26,8.44,10.89Z"/><path class="cls-1" d="M37.74,90.74c1.05,19.78,2.1,39.56,3.15,59.34l5.12,.02c1.58-19.78,3.16-39.57,4.75-59.35h-13.02Z"/><path class="cls-4" d="M29.54,90.74c1.19,22.35,2.37,44.7,3.56,67.05,1.93,0,3.86,.01,5.79,.02,1.79-22.36,3.58-44.71,5.36-67.07h-14.72Z"/><path class="cls-1" d="M351.1,90.74c1.05,19.78,2.1,39.56,3.15,59.34l5.12,.02c1.58-19.78,3.16-39.57,4.75-59.35h-13.02Z"/><path class="cls-4" d="M357.61,90.74c1.19,22.35,2.37,44.7,3.56,67.05,1.93,0,3.86,.01,5.79,.02,1.79-22.36,3.58-44.71,5.36-67.07h-14.72Z"/><rect class="cls-2" x="54.02" y="30.81" width="25.21" height="5.91"/><rect class="cls-2" x="54.02" y="63.4" width="25.21" height="5.91"/><rect class="cls-2" x="319.98" y="63.4" width="25.21" height="5.91"/><rect class="cls-2" x="319.98" y="30.81" width="25.21" height="5.91"/><rect class="cls-2" x="251.67" y="36.72" width="5.6" height="18.22"/></svg>