<?xml version="1.0" encoding="UTF-8"?><svg id="Laag_1" xmlns="http://www.w3.org/2000/svg" viewBox="0 0 652.87 100"><defs><style>.cls-1{fill:#1d1d1b;}.cls-2{fill:#2a704b;}.cls-3{fill:#4c936c;stroke:#1d1d1b;stroke-miterlimit:10;stroke-width:1.05px;}</style></defs><g><path class="cls-2" d="M27,94.29c8.03-2.34,20.07-5.36,34.91-7.14,27.66-3.32,48.09-.32,61.34,1.09,30.62,3.27,38.55-.27,91.58-1.97,60.58-1.95,60.2,2.34,156.57,3.45,78.16,.9,86.96-1.83,143.73,.4,47.3,1.86,85.95,5.51,111.45,8.34-10.13-24.44-22.8-35.84-32.78-41.72-7.15-4.21-19.07-9.21-26.22-22.05-2.95-5.3-4.19-10.31-4.77-13.71-18.47,1.72-47.72,4.08-84.04,5.36-22.13,.78-27.22,.46-81.64,1.23-71.7,1.01-70.06,1.66-88.67,1.16-9.26-.25-11.01-.45-94.84-7.32-48.86-4.01-73.88-6.03-102.55-6.94-21.13-.67-38.52-.7-50.11-.62-11.32,26.81-22.65,53.63-33.97,80.44Z"/><path class="cls-1" d="M27.48,95.86c24.53-7.12,50.1-9.74,75.57-7.84,15.92,1.19,31.59,3.63,47.61,3.22,18.67-.48,37.3-2.25,55.96-2.97,16.46-.64,32.93-.99,49.4-.59,12.55,.3,25.09,1.04,37.62,1.64,20.01,.95,40.03,1.55,60.06,1.9,24.87,.43,49.74,.56,74.61,.27,15.54-.19,31.07-.57,46.61-.52,45.93,.13,91.93,3.16,137.6,7.83,4.4,.45,8.8,.92,13.2,1.41,1.05,.12,4.02-.9,3.36-2.49-5.52-13.16-12.92-25.94-23.77-35.43-8.52-7.46-19.57-11.14-27.8-18.93-6.56-6.21-10.63-14.27-12.21-23.12-.17-.93-1.6-1.03-2.29-.97-36.65,3.41-73.44,5.53-110.24,5.94-38.72,.43-77.45,.9-116.16,1.72-11.69,.25-23.4,.45-35.08-.27-29.83-1.83-59.62-4.74-89.41-7.18-45.21-3.71-90.3-7.19-135.69-7.39-4.87-.02-9.74-.01-14.61,.02-1.13,0-2.76,.41-3.26,1.59-11.32,26.81-22.65,53.63-33.97,80.44-1.07,2.54,4,2.19,4.8,.29,11.32-26.81,22.65-53.63,33.97-80.44l-3.26,1.59c43.68-.3,87.08,2.24,130.6,5.76,35.21,2.85,70.4,6.09,105.63,8.56,10.75,.75,21.52,.83,32.3,.63,37.87-.72,75.74-1.39,113.62-1.76,35.91-.35,71.76-1.93,107.55-4.94,4.26-.36,8.53-.74,12.79-1.13l-2.29-.97c2.64,14.81,12.12,25.4,24.85,32.69,4.39,2.51,8.83,4.81,12.85,7.91,4.65,3.57,8.73,7.87,12.31,12.49,5.75,7.43,10.14,15.75,13.76,24.39l3.36-2.49c-46.23-5.12-92.76-8.41-139.27-9.14-37.65-.59-75.31,.82-112.96,.42-23.24-.24-46.47-.73-69.69-1.71-13.37-.57-26.74-1.38-40.12-1.86-35.01-1.28-69.9,1.07-104.84,2.98-15.01,.82-29.66-.2-44.59-1.82-25-2.71-49.92-1.99-74.55,3.34-5.01,1.08-9.98,2.35-14.9,3.78-3.07,.89-2.13,4.04,.94,3.15Z"/></g><path class="cls-1" d="M24.35,33.05c5.97,7.28,15.75,10.56,24.88,8.15,.93-.24,.96-1.33,.53-2.02-.51-.8-1.56-1.34-2.51-1.09-7.68,2.03-15.53-.71-20.48-6.75-.54-.66-1.81-1.06-2.56-.53-.83,.6-.37,1.61,.14,2.23h0Z"/><path class="cls-1" d="M19.69,47.47c5.97,7.28,15.75,10.56,24.88,8.15,.93-.24,.96-1.33,.53-2.02-.51-.8-1.56-1.34-2.51-1.09-7.68,2.03-15.53-.71-20.48-6.75-.54-.66-1.81-1.06-2.56-.53-.83,.6-.37,1.61,.14,2.23h0Z"/><path class="cls-1" d="M16.62,54.52c5.97,7.28,15.75,10.56,24.88,8.15,.93-.24,.96-1.33,.53-2.02-.51-.8-1.56-1.34-2.51-1.09-7.68,2.03-15.53-.71-20.48-6.75-.54-.66-1.81-1.06-2.56-.53-.83,.6-.37,1.61,.14,2.23h0Z"/><path class="cls-1" d="M10.96,65.09c5.97,7.28,15.75,10.56,24.88,8.15,.93-.24,.96-1.33,.53-2.02-.51-.8-1.56-1.34-2.51-1.09-7.68,2.03-15.53-.71-20.48-6.75-.54-.66-1.81-1.06-2.56-.53-.83,.6-.37,1.61,.14,2.23h0Z"/><path class="cls-1" d="M6.3,79.51c5.97,7.28,15.75,10.56,24.88,8.15,.93-.24,.96-1.33,.53-2.02-.51-.8-1.56-1.34-2.51-1.09-7.68,2.03-15.53-.71-20.48-6.75-.54-.66-1.81-1.06-2.56-.53-.83,.6-.37,1.61,.14,2.23h0Z"/><path class="cls-1" d="M3.24,86.56c5.97,7.28,15.75,10.56,24.88,8.15,.93-.24,.96-1.33,.53-2.02-.51-.8-1.56-1.34-2.51-1.09-7.68,2.03-15.53-.71-20.48-6.75-.54-.66-1.81-1.06-2.56-.53-.83,.6-.37,1.61,.14,2.23h0Z"/><path class="cls-1" d="M46.58,49.26c-5.97-7.28-15.75-10.56-24.88-8.15-.93,.24-.96,1.33-.53,2.02,.51,.8,1.56,1.34,2.51,1.09,7.68-2.03,15.53,.71,20.48,6.75,.54,.66,1.81,1.06,2.56,.53,.83-.6,.37-1.61-.14-2.23h0Z"/><path class="cls-1" d="M52.06,34.84c-5.97-7.28-15.75-10.56-24.88-8.15-.93,.24-.96,1.33-.53,2.02,.51,.8,1.56,1.34,2.51,1.09,7.68-2.03,15.53,.71,20.48,6.75,.54,.66,1.81,1.06,2.56,.53,.83-.6,.37-1.61-.14-2.23h0Z"/><path class="cls-1" d="M55.12,27.79c-5.97-7.28-15.75-10.56-24.88-8.15-.93,.24-.96,1.33-.53,2.02,.51,.8,1.56,1.34,2.51,1.09,7.68-2.03,15.53,.71,20.48,6.75,.54,.66,1.81,1.06,2.56,.53,.83-.6,.37-1.61-.14-2.23h0Z"/><path class="cls-1" d="M34.89,9.5c5.97,7.28,15.75,10.56,24.88,8.15,.93-.24,.96-1.33,.53-2.02-.51-.8-1.56-1.34-2.51-1.09-7.68,2.03-15.53-.71-20.48-6.75-.54-.66-1.81-1.06-2.56-.53-.83,.6-.37,1.61,.14,2.23h0Z"/><path class="cls-1" d="M31.8,18.91c5.97,7.28,15.75,10.56,24.88,8.15,.93-.24,.96-1.33,.53-2.02-.51-.8-1.56-1.34-2.51-1.09-7.68,2.03-15.53-.71-20.48-6.75-.54-.66-1.81-1.06-2.56-.53-.83,.6-.37,1.61,.14,2.23h0Z"/><path class="cls-1" d="M27.96,28.95c5.97,7.28,15.75,10.56,24.88,8.15,.93-.24,.96-1.33,.53-2.02-.51-.8-1.56-1.34-2.51-1.09-7.68,2.03-15.53-.71-20.48-6.75-.54-.66-1.81-1.06-2.56-.53-.83,.6-.37,1.61,.14,2.23h0Z"/><path class="cls-1" d="M32.2,80.62c-5.97-7.28-15.75-10.56-24.88-8.15-.93,.24-.96,1.33-.53,2.02,.51,.8,1.56,1.34,2.51,1.09,7.68-2.03,15.53,.71,20.48,6.75,.54,.66,1.81,1.06,2.56,.53,.83-.6,.37-1.61-.14-2.23h0Z"/><path class="cls-1" d="M35.24,73.53c-5.97-7.28-15.75-10.56-24.88-8.15-.93,.24-.96,1.33-.53,2.02,.51,.8,1.56,1.34,2.51,1.09,7.68-2.03,15.53,.71,20.48,6.75,.54,.66,1.81,1.06,2.56,.53,.83-.6,.37-1.61-.14-2.23h0Z"/><path class="cls-1" d="M39.92,62.8c-5.97-7.28-15.75-10.56-24.88-8.15-.93,.24-.96,1.33-.53,2.02,.51,.8,1.56,1.34,2.51,1.09,7.68-2.03,15.53,.71,20.48,6.75,.54,.66,1.81,1.06,2.56,.53,.83-.6,.37-1.61-.14-2.23h0Z"/><path class="cls-1" d="M607.21,35.04c-.85,3.16-2.39,6.08-4.53,8.58-3.14,3.66-7.57,5.95-12.29,6.74-.96,.16-.92,1.39-.53,2.02,.55,.87,1.53,1.25,2.51,1.09,8.93-1.48,16.06-8.24,18.4-16.92,.47-1.76-3.02-3.49-3.55-1.5h0Z"/><path class="cls-1" d="M622.64,49.58c-.26,.64-.21,.54-.54,1.21s-.68,1.31-1.07,1.94c-1.03,1.68-2.28,3.25-3.74,4.58-3.54,3.22-8.08,5.08-12.86,5.29-.9,.04-1.44,.82-1.14,1.68s1.34,1.61,2.29,1.56c5.28-.24,10.48-2.19,14.4-5.77,2.75-2.5,4.83-5.56,6.21-8.99,.67-1.67-2.78-3.43-3.55-1.5h0Z"/><path class="cls-1" d="M627.67,55.38c-.26,.64-.21,.54-.54,1.21s-.68,1.31-1.07,1.94c-1.03,1.68-2.28,3.25-3.74,4.58-3.54,3.22-8.08,5.08-12.86,5.29-.9,.04-1.44,.82-1.14,1.68s1.34,1.61,2.29,1.56c5.28-.24,10.48-2.19,14.4-5.77,2.75-2.5,4.83-5.56,6.21-8.99,.67-1.67-2.78-3.43-3.55-1.5h0Z"/><path class="cls-1" d="M638.57,72.95c-5.12,6.24-13.34,9.04-21.18,6.98-.85-.22-1.71,.32-1.69,1.23,.03,1,1.06,1.71,1.93,1.94,8.94,2.36,18.35-.82,24.18-7.93,1.2-1.46-2.01-3.7-3.24-2.21h0Z"/><path class="cls-1" d="M645.11,80.32c-5.12,6.24-13.34,9.04-21.18,6.98-.85-.22-1.71,.32-1.69,1.23,.03,1,1.06,1.71,1.93,1.94,8.94,2.36,18.35-.82,24.18-7.93,1.2-1.46-2.01-3.7-3.24-2.21h0Z"/><path class="cls-1" d="M648.17,87.36c-5.12,6.24-13.34,9.04-21.18,6.98-.85-.22-1.71,.32-1.69,1.23,.03,1,1.06,1.71,1.93,1.94,8.94,2.36,18.35-.82,24.18-7.93,1.2-1.46-2.01-3.7-3.24-2.21h0Z"/><path class="cls-1" d="M600.06,61c.85-3.16,2.39-6.08,4.53-8.58,3.14-3.66,7.57-5.95,12.29-6.74,.96-.16,.92-1.39,.53-2.02-.55-.87-1.53-1.25-2.51-1.09-8.93,1.48-16.06,8.24-18.4,16.92-.47,1.76,3.02,3.49,3.55,1.5h0Z"/><path class="cls-1" d="M589.14,50.11c.85-3.16,2.39-6.08,4.53-8.58,3.14-3.66,7.57-5.95,12.29-6.74,.96-.16,.92-1.39,.53-2.02-.55-.87-1.53-1.25-2.51-1.09-8.93,1.48-16.06,8.24-18.4,16.92-.47,1.76,3.02,3.49,3.55,1.5h0Z"/><path class="cls-1" d="M582.66,48.24c.85-3.16,2.39-6.08,4.53-8.58,3.14-3.66,7.57-5.95,12.29-6.74,.96-.16,.92-1.39,.53-2.02-.55-.87-1.53-1.25-2.51-1.09-8.93,1.48-16.06,8.24-18.4,16.92-.47,1.76,3.02,3.49,3.55,1.5h0Z"/><path class="cls-1" d="M587.91,17.9c-.85,3.16-2.39,6.08-4.53,8.58-3.14,3.66-7.57,5.95-12.29,6.74-.96,.16-.92,1.39-.53,2.02,.55,.87,1.53,1.25,2.51,1.09,8.93-1.48,16.06-8.24,18.4-16.92,.47-1.76-3.02-3.49-3.55-1.5h0Z"/><path class="cls-1" d="M589.6,22.57c-.85,3.16-2.39,6.08-4.53,8.58-3.14,3.66-7.57,5.95-12.29,6.74-.96,.16-.92,1.39-.53,2.02,.55,.87,1.53,1.25,2.51,1.09,8.93-1.48,16.06-8.24,18.4-16.92,.47-1.76-3.02-3.49-3.55-1.5h0Z"/><path class="cls-1" d="M602.22,32.78c-.85,3.16-2.39,6.08-4.53,8.58-3.14,3.66-7.57,5.95-12.29,6.74-.96,.16-.92,1.39-.53,2.02,.55,.87,1.53,1.25,2.51,1.09,8.93-1.48,16.06-8.24,18.4-16.92,.47-1.76-3.02-3.49-3.55-1.5h0Z"/><path class="cls-1" d="M622.73,83.37c5.12-6.24,13.34-9.04,21.18-6.98,.85,.22,1.71-.32,1.69-1.23-.03-1-1.06-1.71-1.93-1.94-8.94-2.36-18.35,.82-24.18,7.93-1.2,1.46,2.01,3.7,3.24,2.21h0Z"/><path class="cls-1" d="M616.33,76.32c5.12-6.24,13.34-9.04,21.18-6.98,.85,.22,1.71-.32,1.69-1.23-.03-1-1.06-1.71-1.93-1.94-8.94-2.36-18.35,.82-24.18,7.93-1.2,1.46,2.01,3.7,3.24,2.21h0Z"/><path class="cls-1" d="M604.01,63.41c5.12-6.24,13.34-9.04,21.18-6.98,.85,.22,1.71-.32,1.69-1.23-.03-1-1.06-1.71-1.93-1.94-8.94-2.36-18.35,.82-24.18,7.93-1.2,1.46,2.01,3.7,3.24,2.21h0Z"/><path class="cls-1" d="M569.21,30.77c6.06-5.27,14.51-6.87,21.91-3.51,.76,.34,1.87,.22,2.13-.69s-.67-1.84-1.43-2.19c-8.39-3.8-18.34-2.43-25.3,3.63-1.56,1.36,1.32,3.96,2.69,2.76h0Z"/><path class="cls-1" d="M564.88,25.61c6.06-5.27,14.51-6.87,21.91-3.51,.76,.34,1.87,.22,2.13-.69s-.67-1.84-1.43-2.19c-8.39-3.8-18.34-2.43-25.3,3.63-1.56,1.36,1.32,3.96,2.69,2.76h0Z"/><path class="cls-3" d="M58.19,71.99c1.97-7.11,.4-9.83,2.36-17.88,1.69-6.91,3.86-9.01,8.23-18.09,2.44-5.06,5.67-12.52,8.58-22.18,2.07,.02,4.15,.03,6.22,.05-3.29,8.15-6.28,14.62-8.37,18.96-5.75,11.95-7.7,14.04-9.2,20.69-1.75,7.77-.19,9.75-2.04,17.63-1.72,7.3-4.76,12.83-6.99,16.29-2.57,.16-5.15,.32-7.73,.48,2.89-3.21,6.88-8.53,8.93-15.94Z"/><path class="cls-3" d="M584.11,78.88c-3.4-4.28-5.84-6.02-17.21-15.38-15.72-12.94-17.27-14.74-18.56-16.48-3.28-4.42-7.08-11.38-8.58-22.18-2.07,.02-4.15,.03-6.22,.05,1.33,4.72,3.76,11.58,8.37,18.96,3.82,6.11,7.63,10.19,10.91,13.65,9.83,10.4,14.01,11,20.34,18.77,2.9,3.56,6.7,9.19,9.57,17.56,3.43,.42,6.86,.85,10.29,1.27-1.49-4.19-4.11-10.18-8.91-16.22Z"/></svg>