<?xml version="1.0" encoding="UTF-8"?><svg id="Laag_2" xmlns="http://www.w3.org/2000/svg" viewBox="0 0 200 200"><defs><style>.cls-1{fill:#e94e1b;}.cls-2{fill:#9b2926;}.cls-3{fill:#936037;}.cls-4{fill:#1d1d1b;}</style></defs><g><ellipse class="cls-2" cx="100.17" cy="113.11" rx="71.21" ry="7.76"/><path class="cls-4" d="M174.29,113.11c-.09-2.86-2.78-4.18-5.11-5.03-3.09-1.13-6.41-1.67-9.64-2.18-11.39-1.79-22.96-2.5-34.47-2.96-14.95-.61-29.93-.65-44.89-.18-12.14,.39-24.31,1.06-36.35,2.7-3.69,.5-7.42,1.06-11.01,2.09-2.2,.63-5.02,1.49-6.24,3.61-1.45,2.52,.3,5,2.58,6.14,2.69,1.34,5.73,1.97,8.67,2.52,10.62,1.99,21.51,2.69,32.28,3.24,14.82,.75,29.69,.9,44.53,.56,12.61-.28,25.26-.85,37.8-2.33,4.31-.51,8.65-1.08,12.88-2.05,2.51-.58,5.48-1.24,7.46-3.01,.92-.82,1.47-1.88,1.51-3.12,.12-3.74-5.7-3.74-5.81,0-.01,.37,.17-.92,.08-.56-.07,.26-.25,.39,.21-.48-.27,.5,.38-.45,.24-.27-.03,.04-.34,.3-.33,.31-.07-.21,.82-.5,.05-.09-.17,.09-.35,.19-.53,.28-.09,.05-.18,.08-.27,.13-.43,.26,.72-.26,.22-.09-.57,.19-1.12,.41-1.69,.59-3.19,.97-6.52,1.51-9.81,2-.47,.07-.93,.13-1.4,.2-.95,.13,.57-.07-.39,.05-.3,.04-.6,.08-.89,.11-1.26,.16-2.51,.3-3.77,.44-2.55,.27-5.11,.51-7.67,.72-6.18,.5-12.37,.84-18.56,1.08-14.28,.55-28.59,.59-42.88,.16-11.69-.35-23.41-.96-35.02-2.43-.2-.03-.4-.05-.59-.08-.96-.13,.56,.08-.39-.05-.47-.06-.93-.13-1.4-.2-1.04-.15-2.08-.32-3.12-.5-1.67-.29-3.33-.62-4.97-1.03-1.17-.29-2.31-.82-3.47-1.09,.38,.09,.48,.24-.04-.03-.16-.08-.32-.17-.47-.25-.08-.04-.16-.12-.25-.15-.45-.2,.43-.12,.3,.25,0,0-.31-.29-.33-.31-.25-.3,.49,.7,.3,.38-.09-.15-.08-.28,.06,.19,.18,.59,.12,.31,.09,.19-.09-.36,.08,.93,.08,.56,0-.32-.21,.98-.04,.45-.27,.87-.33,.73-.19,.48,.2-.33-.59,.72-.25,.32,.03-.04,.29-.25,.29-.26,.13,.37-.75,.45-.3,.25,.09-.04,.16-.11,.25-.15,.16-.08,.32-.17,.47-.25,.1-.05,.22-.09,.32-.15,.42-.25-.71,.26-.22,.09,2.83-.96,5.68-1.63,8.63-2.13,.91-.16,1.82-.3,2.73-.43,.51-.08,1.02-.15,1.54-.22,.95-.13-.57,.07,.39-.05,.3-.04,.6-.08,.89-.11,2.49-.31,4.99-.58,7.49-.81,5.83-.54,11.67-.92,17.52-1.2,14.25-.69,28.53-.82,42.79-.51,12.13,.26,24.29,.81,36.35,2.12,1.15,.13,2.3,.26,3.45,.4,.3,.04,.6,.08,.89,.11,.94,.12-.31-.04,.24,.03,.61,.08,1.21,.17,1.82,.26,1.84,.27,3.68,.58,5.5,.96,1.41,.29,2.82,.62,4.19,1.05,.52,.16,1.02,.36,1.53,.54,.3,.1-.67-.35,0,0,.22,.12,.44,.24,.66,.36,.62,.33-.21,.08-.14-.14,0,.01,.3,.28,.33,.31,.23,.28-.51-.78-.24-.27-.46-.87-.28-.74-.21-.48,.09,.36-.09-.93-.08-.56,.12,3.73,5.93,3.75,5.81,0Z"/></g><g><path class="cls-3" d="M79.95,197.65h44.39c3.94-4.48,15.3-18.6,15.68-39.06,.42-22.45-12.55-43.77-33.43-55.92h-9.17c-3.23,2.19-28.1,19.63-30.26,51.35-1.53,22.53,9.31,38.8,12.79,43.62Z"/><path class="cls-4" d="M79.93,199.62c13.8,0,27.6,0,41.4,0,1.77,0,4.15,.41,5.51-.95,.34-.34,.64-.73,.94-1.1,.88-1.05,1.72-2.12,2.53-3.22,2.28-3.1,4.33-6.39,6.07-9.83,4.71-9.31,7.07-19.84,6.46-30.28s-3.75-19.73-8.93-28.29c-5.45-9.02-12.96-16.69-21.76-22.49-1.09-.72-2.19-1.42-3.33-2.07-1.7-.98-3.7-.7-5.6-.7h-4.83c-1.22,0-2.26,.06-3.31,.75-1.3,.85-2.53,1.83-3.73,2.8-11.81,9.57-21.16,22.59-25.06,37.39-4.92,18.63-1.1,38.43,9.39,54.45,.56,.86,1.14,1.7,1.74,2.53,1.44,2,6.92,.67,5.04-1.94-3.39-4.7-6.07-9.68-8.22-15.3-3.48-9.07-4.93-18.8-4.09-28.5,1.36-15.72,9-30.1,20.11-41.12,1.05-1.04,2.12-2.05,3.23-3.02,.12-.11,.24-.21,.36-.31,.05-.04,.51-.44,.26-.23-.28,.24,.17-.14,.18-.15,.13-.11,.27-.22,.4-.34,.41-.34,.83-.68,1.25-1.02,1.14-.91,2.31-1.79,3.52-2.61l-2.06,.56h9.17l-2.05-.6c13.42,7.85,24.22,19.97,29.39,34.74,5.13,14.65,3.9,30.65-3.05,44.49-2.43,4.83-5.45,9.28-9.02,13.35l2.52-.95h-44.39c-1.13,0-2.91,.54-2.93,1.94s1.78,2,2.89,2Z"/></g><g><path class="cls-1" d="M62.28,3.69c26.07,0,52.15,0,78.22,0,7.4,15.56,15.08,34.78,21.13,57.35,5.11,19.05,7.99,36.51,9.6,51.62-19.07-3.96-43.19-7.31-71.12-7.29-27.89,.01-51.97,3.36-71.01,7.33,2-15.46,5.4-33.37,11.14-52.89,6.49-22.05,14.43-40.83,22.04-56.11Z"/><path class="cls-4" d="M62.56,6.21c20.26,0,40.52,0,60.79,0,5.81,0,11.63,0,17.44,0l-2.99-1.78c5.93,12.49,11.11,25.34,15.47,38.46,5.03,15.16,8.96,30.67,11.76,46.39,1.38,7.78,2.49,15.61,3.33,23.46l3.37-2.57c-17.78-3.68-35.84-5.98-53.98-6.9-20.45-1.04-40.98-.28-61.29,2.27-9.51,1.2-18.98,2.77-28.36,4.72l3.86,2.99c1.9-14.58,4.72-29.05,8.46-43.27,3.99-15.15,9.01-30.02,15.06-44.48,2.92-6.97,6.07-13.85,9.43-20.62,1.52-3.06-3.8-5.29-5.23-2.41-6.36,12.78-11.91,25.95-16.67,39.42-5.37,15.2-9.66,30.78-12.84,46.58-1.58,7.83-2.87,15.71-3.91,23.63-.29,2.2,1.94,3.39,3.86,2.99,17.34-3.6,34.94-5.86,52.63-6.77,20.12-1.03,40.33-.32,60.33,2.18,9.28,1.16,18.51,2.7,27.67,4.6,1.6,.33,3.57-.72,3.37-2.57-1.58-14.82-4.13-29.54-7.65-44.03-3.73-15.31-8.48-30.37-14.29-45.02-2.75-6.95-5.74-13.81-8.95-20.56-.55-1.16-1.73-1.78-2.99-1.78-20.26,0-40.52,0-60.79,0-5.81,0-11.63,0-17.44,0-1.4,0-2.75,1.17-2.6,2.63,.17,1.55,1.74,2.42,3.16,2.42Z"/></g></svg>