<?xml version="1.0" encoding="UTF-8"?><svg id="Laag_1" xmlns="http://www.w3.org/2000/svg" viewBox="0 0 142.47 200"><defs><style>.cls-1{fill:#9d9d9c;}.cls-2{fill:#b2b2b2;}.cls-3{fill:#1d1d1b;}.cls-4{fill:#706f6f;}.cls-5{fill:#575756;}</style></defs><g><path class="cls-1" d="M133.44,6.9C94.11,5.75,54.78,4.6,15.44,3.45c-3.62,3.27-7.24,6.54-10.86,9.8V197.42h125.07c3.09-3.8,6.18-7.6,9.27-11.4-1.83-59.71-3.65-119.41-5.48-179.12Z"/><path class="cls-3" d="M134.42,4.05c-20.83-.61-41.66-1.22-62.48-1.83-10.46-.31-20.91-.61-31.37-.92-5.23-.15-10.46-.31-15.68-.46-2.57-.08-5.14-.15-7.72-.23-.79-.02-1.59-.08-2.35,.2-.88,.32-1.54,1-2.22,1.61-.97,.87-1.93,1.74-2.9,2.61-1.93,1.74-3.86,3.49-5.79,5.23-1.06,.96-2.31,1.87-2.47,3.4-.14,1.38,0,2.86,0,4.24V197.85c0,1.19,.86,2.41,2.17,2.41H30.35c8.65,0,17.31,0,25.96,0,9.24,0,18.48,0,27.72,0h40.79c1.17,0,2.34,0,3.52,0,1.48,0,2.72-.4,3.75-1.56,3.02-3.41,5.78-7.1,8.66-10.64,.44-.54,.95-1.07,1.18-1.75,.22-.64,.13-1.32,.11-1.98-.04-1.25-.08-2.49-.11-3.74-.07-2.33-.14-4.66-.21-6.99-.14-4.66-.29-9.31-.43-13.97-.28-9.23-.56-18.46-.85-27.69-.57-18.63-1.14-37.25-1.71-55.88-.57-18.63-1.14-37.25-1.71-55.88-.14-4.57-.28-9.15-.42-13.72-.12-3.95-6.39-2.47-6.29,.87,.71,23.28,1.43,46.57,2.14,69.85,.71,23.28,1.43,46.57,2.14,69.85,.4,13.14,.8,26.28,1.21,39.42l1.02-2.1c-3.09,3.8-6.18,7.6-9.27,11.4l3.1-1.18H10.62c-1.59,0-3.26-.14-4.85,0-.07,0-.14,0-.21,0l2.17,2.41V12.82l-1.02,2.1c3.62-3.27,7.24-6.54,10.86-9.8l-3.1,1.18c30.7,.9,61.41,1.79,92.11,2.69,8.63,.25,17.26,.5,25.89,.76,1.67,.05,3.41-.89,3.97-2.55,.48-1.43-.39-3.09-2.02-3.14Z"/></g><g><rect class="cls-2" x="15.44" y="3.45" width="123.48" height="182.57"/><path class="cls-3" d="M138,182.89H19.54c-1.59,0-3.22-.1-4.81,0-.07,0-.14,0-.22,0l3.3,4.58v-18.16c0-6.55,0-13.1,0-19.65V48.22c0-6.96,0-13.92,0-20.88V12.32c0-2.34,.2-4.78,0-7.11,0-.1,0-.2,0-.3l-1.45,1.67h118.46c1.59,0,3.22,.1,4.81,0,.07,0,.14,0,.22,0l-3.3-4.58V20.16c0,6.55,0,13.1,0,19.65,0,7.99,0,15.98,0,23.97v52.76c0,8.24,0,16.48,0,24.71s0,13.92,0,20.88v15.02c0,2.37,0,4.74,0,7.11,0,.1,0,.2,0,.3,0,1.61,.64,3.36,2.09,4.23,1.14,.68,2.66,.2,2.66-1.32v-4.88c0-4.43,0-8.86,0-13.28,0-6.55,0-13.1,0-19.65s0-15.98,0-23.97v-26.26c0-8.83,0-17.67,0-26.5V12.32c0-2.37,0-4.74,0-7.11,0-.1,0-.2,0-.3,0-1.83-1.08-4.58-3.3-4.58H19.54c-1.59,0-3.22-.11-4.81,0-.07,0-.14,0-.22,0-.84,0-1.45,.9-1.45,1.67V6.87c0,4.43,0,8.86,0,13.28V63.77c0,8.75,0,17.5,0,26.26v26.5c0,8.24,0,16.48,0,24.71v20.88c0,5.01,0,10.01,0,15.02,0,2.37,0,4.74,0,7.11,0,.1,0,.2,0,.3,0,1.83,1.08,4.58,3.3,4.58h118.46c1.59,0,3.22,.11,4.81,0,.07,0,.14,0,.22,0,3.02,0,.87-6.26-1.85-6.26Z"/></g><g><rect class="cls-4" x="58.92" y="62.48" width="36.84" height="72.37"/><path class="cls-3" d="M94.76,60.27H57.92c-1.03,0-2.21,.44-2.21,1.63v72.37c0,1.79,2.84,2.79,4.21,2.79h36.84c1.03,0,2.21-.44,2.21-1.63V63.06c0-2.58-6.42-4.21-6.42-1.16v72.37l2.21-1.63H57.92l4.21,2.79V63.06l-2.21,1.63h36.84c1.23,0,2.67-.78,2.06-2.2s-2.6-2.22-4.05-2.22Z"/></g><g><path class="cls-4" d="M98.74,128.2h27c-10.07-13.68-20.13-27.35-30.2-41.03-12.28-.03-24.56-.06-36.84-.08"/><path class="cls-3" d="M97.94,129.13h27c.59,0,3.34-.64,2.61-1.63-6.91-9.39-13.82-18.77-20.72-28.16-1.68-2.28-3.36-4.56-5.03-6.84-.84-1.14-1.68-2.28-2.52-3.42-.44-.6-.89-1.21-1.33-1.81-.54-.73-.68-.97-1.6-1.03-2.79-.19-5.66-.01-8.46-.02s-5.81-.01-8.71-.02c-6.55-.01-13.11-.03-19.66-.04-.78,0-2.1,.3-2.57,.99s.43,.87,.98,.87c12.28,.03,24.56,.06,36.84,.08l-1.01-.22c10.07,13.68,20.13,27.35,30.2,41.03l2.61-1.63h-27c-.78,0-2.1,.29-2.57,.99s.43,.87,.98,.87h0Z"/></g><g><path class="cls-5" d="M58.7,108.5c13.19,11.85,26.37,23.71,39.56,35.56,.16-5.29,.32-10.57,.48-15.86-13.35-13.7-26.69-27.41-40.04-41.11v21.41Z"/><path class="cls-3" d="M56.91,109.27c13.19,11.85,26.37,23.71,39.56,35.56,.78,.71,3.69,.35,3.73-1,.15-4.79,.29-9.58,.44-14.37,.02-.51,.15-1.13,.04-1.63s-.5-.77-.84-1.12c-.87-.89-1.74-1.79-2.61-2.68-1.68-1.73-3.37-3.46-5.05-5.18-6.73-6.91-13.46-13.82-20.19-20.73-3.83-3.93-7.66-7.86-11.49-11.8-.74-.76-3.73-.3-3.73,1v21.41c0,1.68,3.87,.89,3.87-.45v-21.41l-3.73,1c13.35,13.7,26.69,27.41,40.04,41.11l-.15-.55c-.16,5.29-.32,10.57-.48,15.86l3.73-1c-13.19-11.85-26.37-23.71-39.56-35.56-1.05-.95-4.69,.55-3.58,1.55Z"/></g><g><rect class="cls-5" x="98.74" y="128.2" width="27" height="15.86"/><path class="cls-3" d="M98.58,129.65h27l-1.8-1.31v15.86l2.12-1.58h-27l1.8,1.31v-15.86c0-2.05-3.92-1.5-3.92,.28v15.86c0,1.01,.93,1.31,1.8,1.31h27c.77,0,2.12-.67,2.12-1.58v-15.86c0-1.01-.93-1.31-1.8-1.31h-27c-.85,0-2.03,.66-2.12,1.58-.1,1.02,1.02,1.31,1.8,1.31Z"/></g></svg>