<?xml version="1.0" encoding="UTF-8"?><svg id="Laag_1" xmlns="http://www.w3.org/2000/svg" viewBox="0 0 142.47 200"><defs><style>.cls-1{fill:#f6f6f6;}.cls-2{fill:#b2b2b2;}.cls-3{fill:#c6c6c6;}.cls-4{fill:#1d1d1b;}</style></defs><g><path class="cls-1" d="M133.44,6.9C94.11,5.75,54.78,4.6,15.44,3.45c-3.62,3.27-7.24,6.54-10.86,9.8V197.42h125.07c3.09-3.8,6.18-7.6,9.27-11.4-1.83-59.71-3.65-119.41-5.48-179.12Z"/><path class="cls-4" d="M134.02,4c-20.83-.61-41.66-1.22-62.48-1.83-10.46-.31-20.91-.61-31.37-.92-5.23-.15-10.46-.31-15.68-.46-2.57-.08-5.14-.15-7.72-.23-.83-.02-1.66-.04-2.44,.3-.73,.32-1.28,.9-1.86,1.43-.97,.87-1.93,1.74-2.9,2.61-1.93,1.74-3.86,3.49-5.79,5.23-1.2,1.08-2.39,1.97-2.44,3.71-.04,1.41,0,2.83,0,4.24V198.01c0,1.3,1.48,2.3,2.67,2.3H125.21c1.17,0,2.34,.01,3.52,0,1.51-.02,2.72-.53,3.74-1.72,2.97-3.46,5.85-7.05,8.66-10.64,.98-1.25,1.05-2.24,1.01-3.78-.04-1.25-.08-2.49-.11-3.74-.07-2.33-.14-4.66-.21-6.99-.14-4.66-.29-9.31-.43-13.97-.28-9.23-.56-18.46-.85-27.69-.57-18.63-1.14-37.25-1.71-55.88-.57-18.63-1.14-37.25-1.71-55.88-.14-4.57-.28-9.15-.42-13.72-.05-1.72-2.06-2.51-3.52-2.24-1.67,.31-3.03,1.7-2.98,3.44,.71,23.28,1.43,46.57,2.14,69.85s1.43,46.57,2.14,69.85c.4,13.14,.8,26.28,1.21,39.42l.73-2.15c-3.09,3.8-6.18,7.6-9.27,11.4l3.09-1.34H10.22c-1.6,0-3.25-.12-4.85,0-.07,0-.14,0-.21,0l2.67,2.3V124.95c0-23.96,0-47.91,0-71.87V12.66l-1.35,2.73c3.62-3.27,7.24-6.54,10.86-9.8l-2.47,.77c30.7,.9,61.41,1.79,92.11,2.69,8.63,.25,17.26,.5,25.89,.76,1.65,.05,3.45-1.04,3.78-2.75s-1.03-3-2.63-3.05Z"/></g><g><rect class="cls-1" x="15.44" y="3.45" width="123.48" height="182.57"/><path class="cls-4" d="M138,182.89H19.54c-1.59,0-3.22-.1-4.81,0-.07,0-.14,0-.22,0l3.3,4.58V72.93c0-8.24,0-16.48,0-24.71V12.32c0-2.34,.2-4.78,0-7.11,0-.1,0-.2,0-.3l-1.45,1.67h118.46c1.59,0,3.22,.1,4.81,0,.07,0,.14,0,.22,0l-3.3-4.58V6.87c0,4.43,0,8.86,0,13.28V90.03c0,8.83,0,17.67,0,26.5,0,8.24,0,16.48,0,24.71v35.9c0,2.37,0,4.74,0,7.11,0,.1,0,.2,0,.3,0,1.61,.64,3.36,2.09,4.23,1.14,.68,2.66,.2,2.66-1.32v-18.16c0-6.55,0-13.1,0-19.65,0-7.99,0-15.98,0-23.97v-26.26c0-8.83,0-17.67,0-26.5,0-8.24,0-16.48,0-24.71,0-6.96,0-13.92,0-20.88V12.32c0-2.37,0-4.74,0-7.11,0-.1,0-.2,0-.3,0-1.83-1.08-4.58-3.3-4.58H19.54c-1.59,0-3.22-.11-4.81,0-.07,0-.14,0-.22,0-.84,0-1.45,.9-1.45,1.67V63.77c0,8.75,0,17.5,0,26.26v26.5c0,8.24,0,16.48,0,24.71,0,6.96,0,13.92,0,20.88v15.02c0,2.37,0,4.74,0,7.11,0,.1,0,.2,0,.3,0,1.83,1.08,4.58,3.3,4.58h118.46c1.59,0,3.22,.11,4.81,0,.07,0,.14,0,.22,0,3.02,0,.87-6.26-1.85-6.26Z"/></g><g><rect class="cls-3" x="58.92" y="62.48" width="36.84" height="72.37"/><path class="cls-4" d="M94.76,60.27H57.92c-1.03,0-2.21,.44-2.21,1.63v72.37c0,1.79,2.84,2.79,4.21,2.79h36.84c1.03,0,2.21-.44,2.21-1.63V63.06c0-2.58-6.42-4.21-6.42-1.16v72.37l2.21-1.63H57.92l4.21,2.79V63.06l-2.21,1.63h36.84c1.23,0,2.67-.78,2.06-2.2s-2.6-2.22-4.05-2.22Z"/></g><g><path class="cls-3" d="M98.96,66.38h27c-10.07,13.68-20.13,27.35-30.2,41.03-12.28,.03-24.56,.06-36.84,.08"/><path class="cls-4" d="M98.16,67.31h27l-.98-.87c-10.07,13.68-20.13,27.35-30.2,41.03l2.57-.99c-12.28,.03-24.56,.06-36.84,.08-.78,0-2.09,.29-2.57,.99s.43,.87,.98,.87c11.78-.03,23.56-.05,35.35-.08,1.33,0,2.88,.1,3.93-.87s1.92-2.55,2.79-3.74c1.73-2.35,3.45-4.69,5.18-7.04,3.5-4.76,7.01-9.52,10.51-14.28,3.95-5.36,7.89-10.73,11.84-16.09,.52-.71-.45-.87-.98-.87h-27c-.78,0-2.1,.29-2.57,.99s.43,.87,.98,.87h0Z"/></g><g><path class="cls-2" d="M58.92,86.08c13.19-11.85,26.37-23.71,39.56-35.56,.16,5.29,.32,10.57,.48,15.86-13.35,13.7-26.69,27.41-40.04,41.11v-21.41Z"/><path class="cls-4" d="M60.49,86.49c13.19-11.85,26.37-23.71,39.56-35.56l-3.51,.12c.16,5.29,.32,10.57,.48,15.86l.36-.92c-13.35,13.7-26.69,27.41-40.04,41.11l3.51,.19v-21.41c0-1.75-3.88-1-3.88,.42v21.41c0,1.67,2.82,.91,3.51,.19,6.79-6.97,13.58-13.94,20.37-20.91,3.37-3.46,6.73-6.91,10.1-10.37,1.68-1.73,3.37-3.46,5.05-5.18,.81-.83,1.62-1.67,2.44-2.5,.46-.48,.93-.95,1.39-1.43,.36-.37,.94-.79,1.06-1.33s-.04-1.25-.05-1.79c-.02-.66-.04-1.32-.06-1.98-.04-1.32-.08-2.64-.12-3.96-.09-2.81-.17-5.62-.26-8.42-.02-.58-1.1-.69-1.45-.68-.75,.02-1.49,.29-2.05,.79-13.19,11.85-26.37,23.71-39.56,35.56-.65,.58-.34,1.31,.41,1.54,.9,.28,2.06-.13,2.73-.73Z"/></g><g><rect class="cls-2" x="98.96" y="50.52" width="27" height="15.86"/><path class="cls-4" d="M98.79,67.83h27c.77,0,2.12-.67,2.12-1.58v-15.86c0-1.01-.93-1.31-1.8-1.31h-27c-.77,0-2.12,.67-2.12,1.58v15.86c0,2.05,3.92,1.5,3.92-.28v-15.86l-2.12,1.58h27l-1.8-1.31v15.86l2.12-1.58h-27c-.85,0-2.03,.66-2.12,1.58-.1,1.02,1.02,1.31,1.8,1.31Z"/></g></svg>