<?xml version="1.0" encoding="UTF-8"?><svg xmlns="http://www.w3.org/2000/svg" viewBox="0 0 200 200"><defs><style>.cls-1{fill:#008d36;}.cls-2{fill:#b17f4a;}.cls-3{fill:#ca9e67;}.cls-4{fill:#1d1d1b;}.cls-5{fill:#3aaa35;}</style></defs><g id="Laag_2"><g><path class="cls-3" d="M79.43,112.29c-3.62,6.59-13.08,25.88-9.34,50.79,2.44,16.24,9.45,27.95,13.84,34.14,13.67,0,27.35-.01,41.02-.02,4.43-5.53,11.09-15.49,14.04-29.43,5.65-26.75-6.63-48.11-9.96-53.51"/><path class="cls-4" d="M77.38,110.49c-5.92,10.8-9.51,23-10.24,35.3-1.01,16.97,3.33,33.78,12.19,48.26,.68,1.1,1.37,2.2,2.1,3.27,.33,.49,.65,1.02,1.03,1.48,1.11,1.38,2.58,1.19,4.18,1.19h15.32c5.11-.01,10.21-.01,15.32-.02h7.66c1.17,0,1.65-.36,2.33-1.23,.42-.54,.83-1.08,1.23-1.62,9.76-13.27,14.92-29.51,14.17-46.01-.57-12.62-4.41-25.21-10.75-36.12-.45-.78-.92-1.54-1.39-2.3-.62-1.01-2.27-1.67-3.2-.7-1.05,1.09-.42,2.78,.24,3.85,.3,.49-.41-.68,.03,.05,.17,.29,.34,.57,.51,.86,.38,.65,.75,1.31,1.11,1.97,.92,1.7,1.78,3.43,2.57,5.19,.49,1.08,.95,2.17,1.39,3.27,.11,.27,.21,.54,.32,.81,.05,.14,.28,.74,.23,.61,.08,.22,.42,1.16,.59,1.66,.94,2.76,1.73,5.57,2.35,8.42,2.99,13.71,1.57,28.12-4.13,40.95-2.43,5.47-5.55,10.6-9.29,15.28l1-.48c-13.67,0-27.35,.01-41.02,.02l2.2,1.19c-.58-.82-1.15-1.66-1.7-2.5-.29-.44-.57-.87-.84-1.32-.14-.23-.29-.46-.43-.7,.27,.44-.17-.29-.25-.43-1.39-2.34-2.65-4.75-3.8-7.22-2.83-6.11-4.81-12.58-5.92-19.23-2.15-12.84-.69-26.25,3.73-38.47,1.46-4.03,3.22-7.94,5.28-11.7,1.26-2.3-2.5-6.5-4.09-3.6h0Z"/></g><g><ellipse class="cls-2" cx="104.22" cy="112.29" rx="24.79" ry="6.77"/><path class="cls-4" d="M127.42,110.3c0,.16,.04,0-.07,.29-.06,.15-.12,.3-.21,.44-.23,.38-.56,.67-.91,.95-.94,.74-2.06,1.25-3.17,1.68-3.37,1.3-7.02,1.92-10.59,2.33-8.71,1.01-18.09,.86-26.61-1.39-1.42-.37-2.85-.81-4.18-1.45-.48-.23-.94-.51-1.38-.8-.3-.2-.21-.16-.35-.27-.18-.14-.03-.15-.03-.02,.12,.14,.12,.14,0-.02l.56,.86c.38,.65,.29,.81,.52,1.29,.13,.28-.09,.12,.02,.1,0,0,.02-.12,.05-.22,.11-.35,.3-.64,.54-.92,.7-.79,1.73-1.32,2.67-1.75,3.14-1.45,6.66-2.1,10.06-2.58,4.66-.65,9.38-.83,14.08-.67s9.44,.62,14,1.81c1.56,.41,3.16,.88,4.61,1.62,.29,.15,.58,.32,.86,.5,.13,.08,.69,.47,.48,.32,.07,.05,.12,.12,.19,.18,.22,.18-.26-.37-.02-.03-.39-.56-.77-1.17-.99-1.82-.03-.09-.12-.78-.11-.42,.04,1.29,.84,2.66,1.63,3.64,.31,.39,1.6,1.62,1.55,.34-.12-3.35-2.77-6.34-5.64-7.75-3.58-1.77-7.68-2.49-11.61-2.97-5.38-.67-10.86-.77-16.27-.41-4.46,.3-9.01,.85-13.28,2.25-2,.65-5.26,1.75-5.87,4.09-.42,1.59,.48,3.39,1.27,4.7,.84,1.39,1.94,2.55,3.34,3.37,3.16,1.86,6.97,2.63,10.55,3.18,5.28,.82,10.67,1.03,16,.81s10.35-.74,15.24-2.28c2.34-.74,6.15-2.02,6.25-4.99,.04-1.25-.87-2.71-1.63-3.64-.36-.44-1.51-1.59-1.55-.34Z"/></g></g><g id="Laag_1"><path class="cls-4" d="M114.64,119.6c6.38-14.06,10.68-29.04,12.69-44.36,.52-3.97,.88-7.95,1.1-11.95,.03-.59-.59-1.21-1.01-1.55-.13-.11-1.14-.84-1.17-.3-.85,15.54-3.99,30.92-9.36,45.53-1.34,3.65-2.82,7.24-4.43,10.77-.3,.66,1.84,2.59,2.18,1.85h0Z"/><g><path class="cls-1" d="M68.28,60.16c-1.44,.95-12.05,7.73-25.3,3.78-13.4-3.99-18.55-15.68-19.2-17.24,1.83-.97,13.52-6.95,27-1.94,11.14,4.14,16.25,13.07,17.5,15.4Z"/><path class="cls-4" d="M67.96,59.49c-5.52,3.65-12.48,5.41-19.06,4.91-8.72-.66-16.64-5.28-21.74-12.32-1.24-1.71-2.34-3.55-3.16-5.5l.09,.77c5.27-2.79,11.44-4.15,17.38-3.88,8.66,.4,16.8,4.43,22.49,10.94,1.61,1.84,3.02,3.86,4.18,6.02,.48,.89,.55-.04,.27-.56-2.66-4.96-6.58-9.32-11.27-12.43-7.65-5.08-17.11-6.51-25.98-4.31-2.66,.66-5.28,1.6-7.71,2.89-.22,.11,.04,.65,.09,.77,2.06,4.89,5.55,9.31,9.68,12.6,7.62,6.06,17.83,7.89,27.14,5.16,2.88-.85,5.71-2.07,8.22-3.73,.33-.22-.37-1.51-.63-1.33Z"/></g><path class="cls-4" d="M103.25,118.76c-5.42-20.79-12.51-41.12-21.26-60.75-2.24-5.02-4.59-10-7.03-14.92-.53-1.07-3.42-1.23-2.72,.17,9.11,18.36,16.81,37.42,22.94,56.99,1.88,6.01,3.61,12.06,5.2,18.15,.31,1.19,3.21,1.65,2.87,.36h0Z"/><path class="cls-4" d="M51.35,55.74c4.71,2.35,9.87,4.27,15.1,5.04,2.24,.33,4.56-.04,6.82,.09,3.13,.18,6.11,1.14,8.88,2.58,.53,.27,1.78-.45,1.1-.81-2.39-1.25-4.95-2.2-7.63-2.59-2.52-.37-5.01-.07-7.53-.17-2.79-.11-5.69-1.07-8.33-1.94s-4.94-1.84-7.3-3.01c-.53-.26-1.78,.47-1.1,.81h0Z"/><g><path class="cls-1" d="M73.09,86.56c-1.19,1.25-10,10.24-23.8,9.36-13.95-.88-21.59-11.11-22.59-12.49,1.56-1.36,11.61-9.81,25.88-7.95,11.78,1.53,18.78,9.09,20.51,11.08Z"/><path class="cls-4" d="M72.77,85.89c-4.16,4.37-9.85,7.48-15.72,8.76-8.97,1.95-18.3-.57-25.32-6.39-1.85-1.54-3.58-3.29-5-5.25l.28,1.1c4.1-3.56,9.2-6.1,14.46-7.35,8.79-2.09,18.11-.23,25.53,4.89,2.26,1.56,4.34,3.39,6.15,5.46,.46,.53,.09-.85-.13-1.09-4.11-4.71-9.59-8.29-15.57-10.1-8.41-2.55-17.49-1.37-25.17,2.81-2.1,1.14-4.1,2.48-5.91,4.05-.27,.23,.13,.89,.28,1.1,3.38,4.67,8.27,8.42,13.59,10.6,8.76,3.59,18.75,2.61,26.82-2.25,2.3-1.38,4.48-3.04,6.33-4.99,.31-.32-.48-1.49-.63-1.33Z"/></g><path class="cls-4" d="M56.63,85.6c6.57,1.23,13.27,1.43,19.9,.62,.9-.11,.07-1.23-.62-1.14-6.39,.78-12.86,.58-19.19-.6-.95-.18-.92,.97-.09,1.12h0Z"/><g><path class="cls-1" d="M73.94,43.18c-1.71-.23-14.15-2.15-21.49-13.87-7.43-11.84-3.58-24.02-3.04-25.63,2.02,.48,14.74,3.71,21.56,16.38,5.63,10.46,3.58,20.55,2.97,23.12Z"/><path class="cls-4" d="M73.69,42.51c-4.64-.64-9.19-2.51-13.04-5.14-7.88-5.38-12.44-14.33-12.34-23.86,.03-2.82,.4-5.67,1.19-8.38,.22-.77,.11-.8,.86-.6,.8,.21,1.59,.46,2.37,.74,6.29,2.22,12.01,6.21,15.94,11.63,5.34,7.36,6.93,16.96,4.87,25.76-.08,.34,.66,1.52,.77,1.04,1.78-7.63,.82-15.88-2.68-22.88s-9.24-12.36-16.25-15.61c-2-.93-4.09-1.69-6.23-2.2-.06-.01-.1,0-.12,.06-2.26,6.79-1.98,14.58,.61,21.22,3.17,8.13,9.6,14.51,17.7,17.71,2.19,.87,4.49,1.53,6.83,1.85,.32,.04-.09-1.29-.49-1.34Z"/></g><path class="cls-4" d="M62.73,27.44c5,4.06,8.68,9.42,10.35,15.67,.16,.61,1.3,1.07,1.05,.13-1.76-6.59-5.7-12.34-10.97-16.62-.76-.61-1.03,.34-.43,.82h0Z"/><g><path class="cls-5" d="M134.99,95.7c.82-1.52,6.98-12.5,20.52-15.27,13.69-2.8,23.75,5.07,25.07,6.14-1.15,1.72-8.64,12.5-22.89,14.45-11.77,1.61-20.5-3.85-22.7-5.32Z"/><path class="cls-4" d="M135.36,96.31c2.61-4.83,6.74-8.97,11.45-11.75,8.19-4.83,18.25-5.24,26.94-1.51,2.48,1.07,4.89,2.44,6.99,4.14l-.52-1.24c-2.8,4.17-6.65,7.7-10.97,10.25-7.83,4.62-17.32,5.63-25.98,2.89-2.98-.94-5.84-2.29-8.44-4.03-.37-.25,.01,1.06,.32,1.26,6.01,4,13.34,6.05,20.56,5.59,8.01-.52,15.47-4.13,21.12-9.78,1.52-1.52,2.93-3.17,4.12-4.95,.22-.32-.28-1.05-.52-1.24-5.06-4.09-11.7-6.52-18.18-6.76-8.96-.34-17.49,3.52-23.46,10.13-1.59,1.76-3.03,3.69-4.16,5.78-.19,.35,.58,1.5,.73,1.23Z"/></g><path class="cls-4" d="M121.71,102.91c9.35-5.4,19.5-9.33,30.04-11.66,.81-.18-.09-1.31-.76-1.16-10.65,2.36-20.87,6.36-30.31,11.81-.67,.39,.42,1.38,1.03,1.02h0Z"/><g><path class="cls-5" d="M136.54,75.61c-.25-1.71-1.84-14.19,7.39-24.49,9.33-10.41,22.09-10.08,23.79-10,.1,2.07,.51,15.19-9.78,25.25-8.5,8.31-18.76,9.12-21.4,9.25Z"/><path class="cls-4" d="M136.92,76.01c-.88-6.14,.33-12.72,3.17-18.21,4.16-8.02,11.87-13.54,20.65-15.36,2.36-.49,4.8-.76,7.22-.65l-.63-1.07c.25,5.32-.91,10.81-3.13,15.63-3.77,8.17-10.92,14.32-19.47,17.04-2.73,.87-5.57,1.41-8.43,1.55-.38,.02,.13,1.36,.49,1.34,6.66-.34,13.24-2.67,18.55-6.72,6.74-5.15,11.01-12.81,12.35-21.14,.37-2.28,.52-4.6,.42-6.91-.01-.25-.29-1.05-.63-1.07-5.87-.25-11.96,1.37-16.99,4.36-8.09,4.8-13.29,13.27-14.37,22.56-.3,2.59-.33,5.26,.04,7.86,.05,.32,.87,1.5,.76,.79Z"/></g><path class="cls-4" d="M124.95,87.76c7.01-7.74,14.01-15.48,21.02-23.21,0,0-1.17-.69-1.41-.42-7.01,7.74-14.01,15.48-21.02,23.21,0,0,1.17,.69,1.41,.42h0Z"/><g><path class="cls-1" d="M96.45,71.21c-.3-1.7-2.24-14.14,6.7-24.69,9.04-10.67,21.8-10.69,23.5-10.66,.16,2.07,.94,15.17-9.07,25.51-8.26,8.54-18.5,9.64-21.13,9.84Z"/><path class="cls-4" d="M96.83,71.61c-1.08-6.26,0-13.03,2.85-18.68,4.03-8.01,11.58-13.6,20.26-15.59,2.27-.52,4.62-.84,6.96-.8l-.63-1.07c.41,5.48-.66,11.17-2.89,16.17-3.64,8.15-10.65,14.36-19.08,17.22-2.64,.89-5.39,1.48-8.16,1.69-.22,.02,.18,1.37,.63,1.33,6.62-.52,13.12-3.05,18.28-7.23,6.61-5.35,10.67-13.15,11.77-21.53,.3-2.27,.39-4.58,.22-6.86-.02-.25-.29-1.06-.63-1.07-5.72-.08-11.61,1.62-16.48,4.59-8.13,4.96-13.25,13.64-14.11,23.07-.24,2.64-.2,5.35,.25,7.97,.05,.32,.88,1.49,.76,.79Z"/></g><path class="cls-4" d="M101.83,64.03c-4.55,4.77-8.34,10.21-11.24,16.14-.23,.47,.89,1.41,1.16,.85,2.87-5.86,6.62-11.23,11.13-15.94,.39-.41-.66-1.44-1.05-1.04h0Z"/><g><path class="cls-5" d="M127.38,62.37c-1.25-1.19-10.21-10.03-9.3-23.83,.92-13.95,11.17-21.56,12.55-22.55,1.36,1.57,9.77,11.64,7.88,25.9-1.56,11.78-9.14,18.75-11.14,20.48Z"/><path class="cls-4" d="M127.32,61.83c-4.06-3.89-6.98-9.14-8.22-14.61-1.94-8.54,.31-17.52,5.62-24.42,1.53-1.99,3.28-3.82,5.24-5.39,.23-.19,.53-.36,.74-.57,.24-.24,0-.33,.22-.05,.57,.71,1.12,1.42,1.64,2.17,4.68,6.75,6.75,15.1,5.45,23.24-1.2,7.51-5.21,14.53-10.95,19.51-.32,.28,.43,1.5,.63,1.33,4.99-4.33,8.71-10.18,10.4-16.58,2.23-8.41,.82-17.24-3.3-24.83-1.19-2.2-2.59-4.29-4.23-6.19-.03-.04-.18-.17-.25-.12-4.96,3.56-8.88,8.88-10.94,14.6-3.18,8.85-1.82,18.65,3.03,26.61,1.41,2.31,3.07,4.51,5.03,6.38,.52,.5,.12-.86-.13-1.09Z"/></g><path class="cls-4" d="M127.06,41.27c-.02,6.98-.17,13.97-.45,20.95-.02,.59,1.42,.85,1.44,.32,.27-6.98,.42-13.96,.45-20.95,0-.59-1.44-.84-1.44-.32h0Z"/><g><path class="cls-1" d="M89.05,47.79c-1.19-1.25-9.72-10.5-8.16-24.24,1.58-13.89,12.18-21.01,13.6-21.93,1.28,1.63,9.21,12.09,6.65,26.24-2.12,11.69-10.01,18.3-12.09,19.93Z"/><path class="cls-4" d="M88.99,47.24c-4.33-4.55-7.1-10.72-7.75-16.94-.91-8.76,2.38-17.44,8.45-23.73,1.54-1.6,3.25-3.08,5.12-4.29l-.35-.24c3.45,4.41,5.73,9.86,6.5,15.39,1.21,8.64-1.36,17.42-6.77,24.23-1.6,2.02-3.43,3.86-5.45,5.46-.33,.26,.41,1.51,.63,1.33,5.03-3.97,8.95-9.44,10.99-15.52,2.81-8.37,1.9-17.47-1.92-25.37-1.08-2.25-2.38-4.42-3.92-6.38-.05-.06-.23-.32-.35-.24-5.05,3.28-9.16,8.31-11.51,13.83-3.7,8.72-2.82,18.6,1.65,26.85,1.31,2.41,2.9,4.72,4.79,6.71,.49,.52,.1-.85-.13-1.09Z"/></g><path class="cls-4" d="M84.7,65.85c3.89-11.23,6.46-22.89,7.64-34.71,.02-.19-1.45-.34-1.47-.14-1.18,11.83-3.75,23.48-7.64,34.71-.03,.08,1.37,.42,1.47,.14h0Z"/><g><path class="cls-5" d="M113.31,72.57c-1.73-.08-14.28-.9-22.63-11.93-8.43-11.15-5.67-23.61-5.27-25.26,2.05,.3,15.01,2.4,22.91,14.42,6.53,9.93,5.36,20.16,4.99,22.77Z"/><path class="cls-4" d="M113.06,71.9c-4.92-.24-9.88-1.84-14.1-4.35-8.07-4.8-13.17-13.21-13.84-22.55-.19-2.68-.06-5.41,.44-8.05,.04-.22,.05-.71,.19-.89,.15-.2-.19,.06,.06,.01,.11-.02,.31,.05,.43,.07,.79,.13,1.57,.3,2.35,.49,6.53,1.63,12.63,5.11,17.09,10.17,6.04,6.85,8.52,16.27,7.24,25.25-.05,.35,.71,1.51,.77,1.04,1.07-7.51-.46-15.37-4.23-21.94-3.97-6.9-10.35-12.06-17.8-14.77-2.1-.76-4.28-1.35-6.49-1.68-.11-.02-.12,.07-.14,.15-1.55,6.5-.76,13.67,1.87,19.77,3.61,8.37,10.79,14.67,19.48,17.3,2.32,.71,4.75,1.19,7.18,1.31,.35,.02-.1-1.32-.49-1.34Z"/></g><path class="cls-4" d="M100.57,58.76c2.77,4.88,6.28,9.37,10.81,12.72,2.2,1.62,4.4,3.16,6.29,5.16,2.19,2.31,3.97,4.96,5.34,7.83,.03,.07,1.33-.62,1.24-.8-1.38-2.86-3.15-5.52-5.34-7.83-1.89-2-4.09-3.54-6.29-5.16-4.54-3.35-8.04-7.84-10.81-12.72-.05-.1-1.32,.65-1.24,.8h0Z"/><g><path class="cls-5" d="M107.22,98.19c-1.69,.37-14.03,2.84-24.95-5.64-11.04-8.57-11.61-21.33-11.66-23.02,2.06-.25,15.12-1.58,25.88,7.97,8.89,7.89,10.42,18.07,10.74,20.69Z"/><path class="cls-4" d="M106.9,97.52c-5.76,1.25-12.05,.66-17.52-1.47-8.27-3.21-14.6-10.16-17.13-18.64-.64-2.14-1.07-4.35-1.22-6.58-.01-.18-.12-.6-.04-.77,.07-.15-.13,.13,.11,.1,.16-.01,.32-.03,.48-.05,.96-.09,1.92-.13,2.88-.13,7.71,0,15.39,2.47,21.35,7.42s10.07,12.5,11.02,20.38c.04,.33,.85,1.5,.76,.79-.78-6.38-3.37-12.62-7.39-17.63-5.55-6.92-13.68-11.18-22.47-12.1-2.47-.26-4.99-.28-7.46,0-.09,.01-.07,.24-.07,.27,.16,5.65,2.07,11.4,5.07,16.15,5.19,8.25,14.06,13.48,23.77,14.12,2.82,.19,5.71,.05,8.47-.55,.27-.06-.22-1.42-.63-1.33Z"/></g><path class="cls-4" d="M116.84,108.75c-2.07-4.45-5.13-8.31-9.15-11.13-5.52-3.87-11.49-7.19-17.34-10.5-.47-.27-1.66,.57-1.16,.85,5.79,3.28,11.67,6.57,17.14,10.36,4.05,2.81,7.12,6.62,9.21,11.1,.23,.5,1.55-.16,1.31-.68h0Z"/></g></svg>