<?xml version="1.0" encoding="UTF-8"?><svg id="Laag_2" xmlns="http://www.w3.org/2000/svg" viewBox="0 0 200 200"><defs><style>.cls-1{fill:#8d8085;}.cls-2{fill:#1d1d1b;}.cls-3{fill:#65120c;}</style></defs><g><path class="cls-1" d="M3.76,140.87c-5.44,9.89,13.45,27.03,19.5,32.52,6.8,6.17,19.64,17.82,40.22,22.84,21.93,5.34,24.9-3.61,70.25-7.07,31.12-2.37,48.43,.42,58.38-10.84,.96-1.09,5.94-6.72,5.2-13.67-.55-5.23-4.6-13.65-39.74-27.34-38.44-14.98-63.07-24.75-89.87-17.58-9.89,2.65-13.62,5.9-33.34,11.26-20.05,5.45-27.73,4.63-30.62,9.88Z"/><path class="cls-2" d="M1.18,140c-3.31,6.22,1.54,13.87,5.2,18.76,4.21,5.62,9.29,10.58,14.47,15.29s10.3,9.01,16.06,12.76c8.44,5.48,17.79,9.42,27.59,11.67,5.06,1.16,10.24,1.73,15.43,1.33s9.76-1.54,14.57-2.61c7.07-1.58,13.9-2.94,21.05-3.96,10.91-1.55,21.91-2.36,32.92-2.85,8.5-.38,17.08-.41,25.53-1.55,6.16-.83,12.57-2.36,17.49-6.37,5.16-4.22,9.41-11,8.44-17.89-.39-2.78-1.64-5.29-3.43-7.44-3.45-4.14-8.07-7.21-12.69-9.89-8.7-5.05-18.09-8.88-27.45-12.53-10.46-4.08-20.92-8.21-31.58-11.76-8.93-2.98-18.07-5.56-27.41-6.85-8.5-1.17-17.12-1.14-25.56,.45-6.23,1.17-12.03,3.32-17.91,5.64-8.72,3.43-17.68,6.16-26.78,8.38-4.32,1.05-8.67,1.94-13.02,2.87-2.7,.58-5.48,1.12-8.02,2.25-1.89,.84-3.63,2.01-4.66,3.85-.65,1.15-.08,2.27,1.03,2.91,.86,.5,2.97,.91,3.62-.23,.21-.37,.43-.72,.7-1.04,.15-.18,.31-.34,.46-.51,.35-.4-.24,.13,.21-.19,.36-.25,.71-.51,1.09-.72,.18-.1,.37-.19,.55-.29,.47-.25-.33,.14-.02,0,.16-.07,.31-.13,.47-.19,2.6-1.03,5.42-1.55,8.15-2.13,9.65-2.03,19.24-4.28,28.63-7.34,6.04-1.96,11.83-4.52,17.82-6.61,6.88-2.4,14.08-3.67,21.36-3.8,17.9-.32,35.56,6.13,52.19,12.37,10.5,3.94,21.09,7.83,31.31,12.44,3.86,1.74,7.67,3.61,11.35,5.69,1.42,.8,2.81,1.64,4.18,2.52,.58,.38,1.16,.77,1.73,1.16,.12,.08,.24,.17,.36,.25-.46-.32-.06-.04,.05,.04,.3,.22,.6,.45,.9,.68,.87,.67,1.71,1.36,2.52,2.1,.35,.32,.69,.65,1.03,.99,.17,.18,.34,.36,.51,.54,.1,.11,.3,.35-.14-.15,.09,.1,.18,.21,.27,.31,.49,.59,.96,1.19,1.38,1.83,.18,.27,.33,.56,.5,.84-.08-.13-.2-.42-.02-.02,.07,.15,.14,.29,.21,.44,.23,.51,.42,1.03,.57,1.57,.04,.15,.2,.85,.11,.43s.05,.31,.07,.47c.52,3.66-.7,7.31-2.7,10.35-.64,.96-1.35,1.88-2.11,2.74-1,1.12-1.75,1.83-2.82,2.63s-2.16,1.47-3.32,2.06c-.99,.5-2.27,1.01-3.65,1.45-6.41,2.04-13.44,2.3-20.38,2.63-10.31,.48-20.63,.8-30.92,1.71-9.06,.81-18.07,2.02-26.99,3.75-5.59,1.08-11.11,2.47-16.69,3.57-.24,.05-.49,.09-.73,.14,.62-.12-.22,.04-.37,.07-.56,.1-1.12,.19-1.68,.28-1.1,.17-2.2,.31-3.31,.4s-2.16,.15-3.24,.17c-.27,0-.53,0-.8,0-.13,0-.95-.02-.56,0s-.47-.02-.57-.02c-.31-.02-.62-.03-.93-.06-2.55-.18-5.08-.59-7.57-1.13-.14-.03-1.28-.29-.67-.15-.45-.11-.89-.22-1.34-.33-1.41-.36-2.8-.76-4.19-1.19-2.42-.76-4.81-1.64-7.16-2.62-7.55-3.18-14.42-7.61-20.64-12.73-4.38-3.61-8.61-7.47-12.62-11.48-4.85-4.86-10.18-10.48-12.48-17.07-.87-2.5-1.1-4.9,.18-7.3,.63-1.18-1.04-2.43-1.95-2.74-1.23-.42-2.58-.19-3.21,1Z"/></g><g><path class="cls-1" d="M73.59,99.72c9.26-21.4,21.95-36.5,32.23-35.8,3.79,.26,7.67,1.54,7.67,1.54,9.96,3.3,11.26,9.18,17.3,9.11,4.76-.05,5.5-3.72,11.77-3.95,0,0,4.31-.16,8.58,1.91,7.62,3.7,11.08,20.78,7.23,41.91-1.37,1.59-18.1,20.4-43.8,17.42-18.36-2.13-34.17-14.56-40.98-32.15Z"/><path class="cls-2" d="M76.03,99.98c4.46-10.26,10-20.78,18.16-28.6,1.16-1.11,2.88-2.52,4.52-3.55-.53,.33,.51-.28,.68-.37,.36-.2,.73-.38,1.1-.55,.22-.1,.44-.2,.66-.29-.69,.28,.03,0,.15-.04,.43-.13,.87-.25,1.3-.38,.12-.04,.52-.09-.06,0,.21-.04,.42-.07,.64-.1,.35-.04,.7-.07,1.05-.09,.67-.03-.34-.02,.07,0,.26,.02,.51,.03,.76,.05,.89,.08,1.78,.21,2.66,.37,2.05,.38,4.05,.95,5.98,1.74,2.15,.89,4.11,2.06,5.96,3.47,1.45,1.1,2.8,2.35,4.35,3.32,3.71,2.32,8.14,2.19,11.92,.02,.72-.42,1.42-.88,2.16-1.28,.91-.49,1.23-.64,2.34-.82,.14-.02,1.62-.16,1.62-.14,0-.04,1.21,.17-.33,0,.17,.02,.36,0,.53,.02,1.15,.05,2.31,.2,3.43,.45,3.91,.9,6.22,2.69,8.04,6.27,2.26,4.43,3.04,9.53,3.37,14.44,.47,6.96-.14,13.95-1.38,20.8l.62-1.08c-.64,.75-1.33,1.46-2.04,2.15-.29,.29-.58,.57-.88,.85-.16,.15-.33,.31-.5,.46,.5-.47,0,0-.21,.18-.85,.75-1.73,1.48-2.62,2.18-1.01,.79-2.04,1.54-3.1,2.27-.58,.39-1.16,.77-1.75,1.15-.49,.31-.13,.08-.03,.02-.16,.09-.31,.19-.47,.28-.4,.24-.8,.47-1.21,.7-1.36,.77-2.76,1.49-4.19,2.14-1.65,.75-2.6,1.13-4.41,1.73-14.75,4.9-31.2,1.52-43.33-8.2-6.93-5.56-12.19-12.87-15.42-21.14-.91-2.33-6.14,.19-5.19,2.62,7.14,18.25,24.32,31.49,43.94,33.12,16.16,1.34,32.02-5.51,43.45-16.75,.53-.52,1.05-1.05,1.55-1.6,.13-.15,.27-.29,.4-.44,.84-1,.91-2.26,1.11-3.51,.91-5.69,1.4-11.49,1.21-17.25-.15-4.62-.75-9.24-2.13-13.66-.99-3.18-2.51-6.39-5.01-8.67-2.97-2.7-7.57-3.71-11.47-3.76-2.31-.03-4.56,.43-6.67,1.36-1.55,.68-2.88,1.78-4.45,2.42,.7-.29-.62,.14-.42,.1,.25-.05-.98,.08-.72,.08-.96,.02-1.32-.08-2.02-.35-1.35-.5-2.31-1.3-3.56-2.3-3.36-2.69-6.86-5.04-11-6.37s-8.37-2.19-12.54-1.27c-3.61,.8-6.93,2.82-9.77,5.13-7.73,6.32-13.33,15.17-17.85,23.95-1.38,2.69-2.67,5.43-3.87,8.2-1.41,3.23,3.9,2.8,4.88,.54Z"/></g><g><path class="cls-3" d="M74.99,98.54c-2.47,3.5-5.8,8.82-8.55,15.82-2.24,5.69-3.73,9.48-3.77,13.63-.12,14.5,17.62,25.21,22.7,28.27,15.91,9.6,31.36,8.7,34.28,8.48,6.4-.47,23.63-1.74,31.01-13.46,1.87-2.96,2.89-8.11,4.86-18.28,1.61-8.34,2.59-15.34,3.19-20.28-3.37,2.45-20.23,14.2-43.45,10.83-24.97-3.62-38.13-21.93-40.27-25.02Z"/><path class="cls-2" d="M72.99,96.47c-4.46,6.34-7.79,13.17-10.49,20.42-1.28,3.45-2.34,6.91-2.44,10.61-.09,3.12,.64,6.26,1.88,9.11,4.29,9.88,13.51,16.78,22.52,22.16,10.54,6.29,23.22,9.68,35.53,8.79,10.65-.77,22.39-2.77,30.09-10.87,1.73-1.82,3.22-3.94,4.12-6.29,1-2.61,1.62-5.35,2.2-8.07,1.71-8.01,3.17-16.08,4.29-24.19,.21-1.51,.4-3.01,.58-4.52,.14-1.14-.25-2.27-1.16-3-.74-.59-2.01-1.01-2.88-.38-9.32,6.78-20.6,10.77-32.18,11.11-8.52,.25-16.97-1.43-24.74-4.94-3.06-1.38-6.1-3.16-8.92-5.12s-4.37-3.24-6.69-5.42c-1.88-1.77-3.67-3.66-5.32-5.66-.3-.36-.6-.73-.89-1.1-.13-.16-.26-.33-.39-.5-.49-.63,.28,.4,.05,.07-.33-.47-.68-.92-1-1.39-.8-1.15-2.27-2.04-3.64-1.23-1.24,.73-1.48,2.63-.69,3.78,5.87,8.46,13.97,15.57,23.12,20.28,15.48,7.97,33.79,9.02,50.04,2.71,5.02-1.95,9.84-4.41,14.2-7.58l-4.05-3.37c-.89,7.35-2.1,14.66-3.51,21.93-.65,3.36-1.28,6.73-2.11,10.06-.14,.57-.29,1.15-.46,1.72-.08,.28-.16,.56-.25,.84,.14-.45-.07,.2-.12,.34-.3,.86-.65,1.72-1.09,2.52-2.5,4.51-7.51,7.62-12.08,9.35s-9.57,2.64-14.48,3.12c-.44,.04-.89,.08-1.33,.12-.13,.01-.77,.06-.41,.03s-.25,.02-.36,.03c-.56,.04-1.12,.08-1.69,.11-1.87,.09-3.75,.06-5.62-.05-6.61-.4-13.1-1.93-19.2-4.51-4.7-1.98-9.13-4.71-13.28-7.67-2.27-1.62-3.8-2.84-5.73-4.64-1.01-.94-1.99-1.92-2.91-2.95-.98-1.09-1.69-1.97-2.34-2.89-.82-1.18-1.57-2.42-2.2-3.71-.3-.61-.28-.55-.59-1.4-.25-.67-.46-1.35-.64-2.04-.3-1.16-.44-2.24-.46-3.7s.23-2.84,.59-4.29c.88-3.59,2.37-7.1,3.83-10.48s3.2-6.73,5.16-9.89c.71-1.14,1.34-2.09,2.12-3.2,.87-1.24,.77-2.85-.3-3.97-.87-.9-2.81-1.43-3.69-.18Z"/></g></svg>