<?xml version="1.0" encoding="utf-8"?>
<!-- Generator: Adobe Illustrator 27.0.0, SVG Export Plug-In . SVG Version: 6.00 Build 0)  -->
<svg version="1.1" id="Laag_1" xmlns="http://www.w3.org/2000/svg" xmlns:xlink="http://www.w3.org/1999/xlink" x="0px" y="0px"
	 viewBox="0 0 200 720.6" style="enable-background:new 0 0 200 720.6;" xml:space="preserve">
<style type="text/css">
	.st0{fill:#683C11;}
	.st1{fill:#1D1D1B;}
	.st2{fill:#CBBBA0;}
</style>
<g>
	<rect x="93.7" y="221.2" class="st0" width="12.7" height="483.9"/>
	<path class="st1" d="M104.6,219.1H92c-0.7,0-1.2,0.4-1.2,1.3v13c0,11.7,0,23.4,0,35.1c0,17.4,0,34.7,0,52.1c0,21.2,0,42.4,0,63.6
		s0,46.3,0,69.4s0,47,0,70.5c0,21.8,0,43.5,0,65.3c0,21.8,0,36.9,0,55.4v39.8c0,6.2-0.3,12.6,0,18.8c0,0.3,0,0.5,0,0.8
		c0,2.2,3.4,3,4.6,3H108c0.7,0,1.2-0.4,1.2-1.3v-48.2c0-17.4,0-34.7,0-52.1c0-21.2,0-42.4,0-63.6s0-46.3,0-69.4c0-23.5,0-47,0-70.5
		c0-21.8,0-43.5,0-65.3c0-21.8,0-36.9,0-55.4s0-26.5,0-39.8c0-6.2,0.3-12.6,0-18.8c0-0.3,0-0.5,0-0.8c0-2.4-5.8-4.6-5.8-1.7v13
		c0,11.7,0,23.4,0,35.1c0,17.4,0,34.7,0,52.1c0,21.2,0,42.4,0,63.6v69.4c0,23.5,0,47,0,70.5c0,21.8,0,43.5,0,65.3
		c0,21.8,0,36.9,0,55.4V697c0,2.1-0.2,4.4,0,6.5c0,0.3,0,0.6,0,0.8l1.2-1.3H92l4.6,3v-13c0-11.7,0-23.4,0-35.1c0-11.7,0-34.7,0-52.1
		c0-21.2,0-42.4,0-63.6s0-46.3,0-69.4s0-47,0-70.5c0-21.8,0-43.5,0-65.3c0-21.8,0-36.9,0-55.4c0-18.5,0-26.5,0-39.8v-12.4
		c0-2.1,0.2-4.4,0-6.5c0-0.3,0-0.6,0-0.8l-1.2,1.3H108c1.3,0,1.4-1.4,0.7-2.4C107.8,219.6,106,219.1,104.6,219.1L104.6,219.1z"/>
</g>
<g>
	<path class="st0" d="M157.4,713.8c0.6-6.1-27.2-21-57.2-21.1c-30.2,0-58.1,14.9-57.5,21.1c0.4,4.6,19.5,4.6,57.7,4.6
		C138.1,718.3,157,718.3,157.4,713.8z"/>
	<path class="st1" d="M160.4,713.3c0.2-2.4-1.8-4.4-3.5-5.9c-2.9-2.5-6.1-4.4-9.5-6.1c-10-5-20.9-8.2-32-9.9
		c-12.5-1.9-25.3-1.3-37.7,1.5c-10.1,2.3-20.2,5.6-29,11.1c-2.8,1.7-5.8,3.7-7.7,6.5c-1.2,1.6-2,3.9-0.7,5.7c1,1.3,2.8,2,4.4,2.4
		c2.6,0.7,5.3,1,8,1.3c8.8,0.8,17.7,0.8,26.5,0.8c12.9,0.1,25.9,0.1,38.8,0c9.2,0,18.5,0,27.8-0.8c2.8-0.2,5.5-0.6,8.2-1.3
		c2-0.5,4.2-1.3,5.5-3C160,714.9,160.3,714.2,160.4,713.3c0.2-1.5-1.8-2-2.9-1.9c-1.4,0.2-2.9,1.2-3.1,2.7c-0.1,0.4,0.2-0.7,0.1-0.2
		c-0.1,0.2-0.3,0.6,0.2-0.2c-0.1,0.1-0.1,0.2-0.2,0.3s0.6-0.6,0.1-0.2c-0.4,0.4,0.8-0.4,0.2-0.2c-0.1,0.1-0.3,0.1-0.4,0.2
		c-0.6,0.4,0.6-0.2,0.2-0.1c-0.2,0-0.3,0.1-0.5,0.2c-0.4,0.1-0.8,0.2-1.1,0.4c-0.8,0.2,0.3,0,0,0s-0.6,0.1-0.9,0.2
		c-1.1,0.2-2.3,0.4-3.4,0.5c-1.5,0.2-3,0.3-4.5,0.4c-0.8,0.1-1.6,0.1-2.5,0.1c-0.4,0-0.9,0-1.3,0.1c-0.2,0-0.4,0-0.5,0
		c-0.7,0,0.3,0-0.3,0c-4.5,0.2-9,0.2-13.5,0.3c-12.1,0.1-24.2,0.1-36.4,0.1c-9.7,0-19.5,0-29.2-0.4c-3.1-0.1-6.2-0.3-9.2-0.7
		c-0.3,0-0.6-0.1-0.9-0.1c-0.3,0-0.8-0.1-0.2,0c-0.5-0.1-1.1-0.2-1.6-0.3c-0.4-0.1-0.8-0.2-1.3-0.3c-0.2-0.1-0.4-0.1-0.5-0.2
		c-0.1,0-0.8-0.3-0.3-0.1c0.5,0.2-0.4-0.2-0.5-0.3c-0.1,0-0.2-0.2-0.3-0.2c0,0,0.5,0.5,0.1,0.1c0,0-0.2-0.2-0.2-0.3
		c-0.1,0,0.3,0.6,0.1,0.2c0-0.1-0.1-0.2-0.1-0.3c0.1,1,0,0.3,0.1,0.1c0.1-0.6-0.2,0.4,0,0c0.1-0.2,0.2-0.4,0.2-0.5
		c-0.1,0.3-0.3,0.4,0,0c0.2-0.2,0.3-0.5,0.5-0.7c0.1-0.1,0.2-0.2,0.2-0.3c0.2-0.3-0.5,0.5-0.1,0.1c0.2-0.2,0.4-0.4,0.6-0.6
		c0.5-0.5,1.1-1,1.7-1.4c0.1-0.1,0.9-0.6,0.6-0.4c-0.4,0.3,0.2-0.2,0.3-0.2c0.2-0.1,0.3-0.2,0.5-0.3c0.8-0.5,1.5-1,2.3-1.5
		c1.8-1.1,3.6-2,5.5-2.9c0.1,0,0.5-0.3,0.1-0.1c0.2-0.1,0.5-0.2,0.8-0.3c0.5-0.2,1-0.5,1.5-0.7c1.1-0.5,2.3-0.9,3.4-1.4
		c2.5-0.9,5-1.8,7.5-2.5c10.9-3.2,22.5-4.8,33.9-4c11.4,0.7,21.8,3.2,32,7.3c3.8,1.5,7.5,3.3,11,5.5c1.3,0.8,2.6,1.7,3.8,2.7
		c-0.4-0.3,0.3,0.3,0.4,0.4c0.2,0.2,0.4,0.4,0.6,0.6c0.4,0.4,0.8,0.9,1.1,1.3c0.1,0.1,0.1,0.2,0.1,0.2c0.3,0.4-0.2-0.5-0.1-0.1
		c0.1,0.2,0.2,0.4,0.2,0.5c0.1,0.1,0.2,0.7,0.1,0.2s0,0.1,0,0.3C154.2,717.3,160.2,716.2,160.4,713.3L160.4,713.3z"/>
</g>
<g>
	<path class="st2" d="M155.3,123.4H44.2c-11.2,38.3-22.5,76.6-33.7,114.9h179.1C178.1,200.1,166.7,161.8,155.3,123.4z"/>
	<path class="st1" d="M154.2,120.1H43c-0.6,0-1.4,0.7-1.5,1.3c-8.8,29.9-17.5,59.7-26.2,89.6c-2.5,8.5-5,16.9-7.4,25.4
		c-0.7,2.4,1.1,5.4,3.7,5.4h171.8c2.3,0,4.7,0.1,7,0c0.1,0,0.2,0,0.3,0c1.8,0,1.8-2.6,1.5-3.7c-8.9-29.9-17.8-59.7-26.7-89.6
		c-2.5-8.5-5-16.9-7.6-25.4C157.5,121.6,155.9,119.8,154.2,120.1c-1.7,0.2-1.9,2.4-1.5,3.7c8.9,29.9,17.8,59.7,26.7,89.6
		c2.5,8.5,5,16.9,7.6,25.4l1.5-3.7H16.6c-2.3,0-4.7-0.1-7,0c-0.1,0-0.2,0-0.3,0l3.7,5.4c8.8-29.9,17.5-59.7,26.2-89.6
		c2.5-8.5,5-16.9,7.4-25.4l-1.5,1.3h111.1c1.8,0,1.9-2.5,1.5-3.7C157.3,121.4,156,120.1,154.2,120.1L154.2,120.1z"/>
</g>
</svg>
